{"accessors":[{"bufferView":0,"componentType":5126,"count":390,"min":[-1.2570582628250123,0.5658912658691406,24.52808380126953],"max":[1.2570689916610718,3.9399611949920656,26.730546951293947],"type":"VEC3","name":"x0_vc_top_decal_vertices#0_POSITION"},{"bufferView":0,"byteOffset":12,"componentType":5120,"count":390,"type":"VEC4","name":"x0_vc_top_decal_vertices#0_TANGENT"},{"bufferView":0,"byteOffset":16,"componentType":5120,"count":390,"type":"VEC4","name":"x0_vc_top_decal_vertices#0_NORMAL"},{"bufferView":0,"byteOffset":20,"componentType":5122,"count":390,"type":"VEC2","name":"x0_vc_top_decal_vertices#0_TEXCOORD_0"},{"bufferView":0,"byteOffset":24,"componentType":5122,"count":390,"type":"VEC2","name":"x0_vc_top_decal_vertices#0_TEXCOORD_1"},{"bufferView":0,"byteOffset":28,"componentType":5123,"count":390,"type":"VEC4","name":"x0_vc_top_decal_vertices#0_COLOR_0"},{"bufferView":1,"componentType":5123,"count":1824,"type":"SCALAR","name":"x0_vc_top_decal_indices#0"}],"asset":{"generator":"babylon.js glTF exporter for 3dsmax 2023 v1.0.9161.21312","version":"2.0","extensions":{"ASOBO_asset_optimized":{"BoundingBoxMax":[1.2570823431015015,3.2608108520507814,26.730552673339845],"BoundingBoxMin":[-1.2570449113845826,-0.1132674291729927,24.52810287475586],"MajorVersion":4,"MinorVersion":6,"UseCheckerboardMaterialForMissingTextures":true,"UseOnlyFilenameForImageURI":true},"ASOBO_normal_map_convention":{"tangent_space_convention":"DirectX"}}},"bufferViews":[{"buffer":0,"byteLength":14040,"byteStride":36,"target":34962,"name":"BufferViewVertexND"},{"buffer":0,"byteLength":3648,"byteOffset":14040,"target":34963,"name":"BufferViewIndexU16"}],"extensionsRequired":["MSFT_texture_dds"],"materials":[{"name":"Wing Decal","alphaMode":"BLEND","pbrMetallicRoughness":{"baseColorTexture":{"index":0},"metallicRoughnessTexture":{"index":1}},"extensions":{"ASOBO_material_geometry_decal":{"blendSharpnessFactor":1.0,"metallicBlendFactor":0.8,"normalBlendFactor":0.0,"occlusionBlendFactor":0.8,"roughnessBlendFactor":0.8}}}],"meshes":[{"primitives":[{"attributes":{"COLOR_0":5,"NORMAL":2,"POSITION":0,"TANGENT":1,"TEXCOORD_0":3,"TEXCOORD_1":4},"indices":6,"material":0,"mode":4,"extras":{"ASOBO_primitive":{"PrimitiveCount":608,"UV2Length":0.32223036885261538,"UVLength":0.32223036885261538,"VertexCount":390,"VertexType":"VTX","VertexVersion":2}}}],"name":"x0_vc_top_decal"}],"nodes":[{"translation":[0.0000153779984,-0.679015934,-2.96806952e-8],"rotation":[0.00000274181366,0.0,2.98023224e-7,1.0],"mesh":0,"extensions":{"ASOBO_unique_id":{"id":"x0_vc_top_decal"}},"name":"vc_top_decal"}],"scene":0,"scenes":[{"nodes":[0]}],"textures":[{"extensions":{"MSFT_texture_dds":{"source":0}}},{"extensions":{"MSFT_texture_dds":{"source":1}}}],"extensionsUsed":["ASOBO_normal_map_convention","ASOBO_unique_id","ASOBO_material_geometry_decal","MSFT_texture_dds","ASOBO_asset_optimized"],"buffers":[{"byteLength":17688,"uri":"Livery_LOD0.bin"}],"images":[{"uri":"..\\..\\..\\..\\..\\..\\..\\..\\..\\..\\EXPORT\\200ER 2024\\77WGDEC_A.PNG.KTX2","extras":"ASOBO_image_converted_meta"},{"uri":"..\\..\\..\\..\\..\\..\\..\\..\\..\\..\\EXPORT\\200ER 2024\\77WGDEC_C.PNG.KTX2","extras":"ASOBO_image_converted_meta"}]}
