{"accessors":[{"bufferView":0,"componentType":5126,"count":205,"type":"MAT4"},{"bufferView":1,"componentType":5126,"count":4646,"min":[-0.02190113067626953,-0.07648921012878418,-2.4887592792510986],"max":[2.2013015747070312,1.7722828388214111,0],"type":"VEC3","name":"WINGLET_L_vertices#0_POSITION"},{"bufferView":1,"byteOffset":12,"componentType":5120,"count":4646,"type":"VEC4","name":"WINGLET_L_vertices#0_TANGENT"},{"bufferView":1,"byteOffset":16,"componentType":5120,"count":4646,"type":"VEC4","name":"WINGLET_L_vertices#0_NORMAL"},{"bufferView":1,"byteOffset":20,"componentType":5122,"count":4646,"type":"VEC2","name":"WINGLET_L_vertices#0_TEXCOORD_0"},{"bufferView":1,"byteOffset":24,"componentType":5122,"count":4646,"type":"VEC2","name":"WINGLET_L_vertices#0_TEXCOORD_1"},{"bufferView":1,"byteOffset":28,"componentType":5123,"count":4646,"type":"VEC4","name":"WINGLET_L_vertices#0_COLOR_0"},{"bufferView":2,"componentType":5123,"count":18369,"type":"SCALAR","name":"WINGLET_L_indices#0"},{"bufferView":1,"byteOffset":167256,"componentType":5126,"count":141,"min":[-0.0002640965976752341,-0.022011250257492065,-0.021914103999733925],"max":[0.029199376702308655,0.02145448885858059,0.021506579592823982],"type":"VEC3","name":"LT_NAV_EM_FL_vertices#0_POSITION"},{"bufferView":1,"byteOffset":167268,"componentType":5120,"count":141,"type":"VEC4","name":"LT_NAV_EM_FL_vertices#0_TANGENT"},{"bufferView":1,"byteOffset":167272,"componentType":5120,"count":141,"type":"VEC4","name":"LT_NAV_EM_FL_vertices#0_NORMAL"},{"bufferView":1,"byteOffset":167276,"componentType":5122,"count":141,"type":"VEC2","name":"LT_NAV_EM_FL_vertices#0_TEXCOORD_0"},{"bufferView":1,"byteOffset":167280,"componentType":5122,"count":141,"type":"VEC2","name":"LT_NAV_EM_FL_vertices#0_TEXCOORD_1"},{"bufferView":1,"byteOffset":167284,"componentType":5123,"count":141,"type":"VEC4","name":"LT_NAV_EM_FL_vertices#0_COLOR_0"},{"bufferView":2,"byteOffset":36738,"componentType":5123,"count":780,"type":"SCALAR","name":"LT_NAV_EM_FL_indices#0"},{"bufferView":1,"byteOffset":172332,"componentType":5126,"count":74,"min":[-0.011369705200195312,-0.011250262148678303,-0.015001777559518814],"max":[0.010829925537109375,0.010949850082397461,0.006408216431736946],"type":"VEC3","name":"LT_STROBE_EM_RL_vertices#0_POSITION"},{"bufferView":1,"byteOffset":172344,"componentType":5120,"count":74,"type":"VEC4","name":"LT_STROBE_EM_RL_vertices#0_TANGENT"},{"bufferView":1,"byteOffset":172348,"componentType":5120,"count":74,"type":"VEC4","name":"LT_STROBE_EM_RL_vertices#0_NORMAL"},{"bufferView":1,"byteOffset":172352,"componentType":5122,"count":74,"type":"VEC2","name":"LT_STROBE_EM_RL_vertices#0_TEXCOORD_0"},{"bufferView":1,"byteOffset":172356,"componentType":5122,"count":74,"type":"VEC2","name":"LT_STROBE_EM_RL_vertices#0_TEXCOORD_1"},{"bufferView":1,"byteOffset":172360,"componentType":5123,"count":74,"type":"VEC4","name":"LT_STROBE_EM_RL_vertices#0_COLOR_0"},{"bufferView":2,"byteOffset":38298,"componentType":5123,"count":318,"type":"SCALAR","name":"LT_STROBE_EM_RL_indices#0"},{"bufferView":1,"byteOffset":174996,"componentType":5126,"count":63,"min":[-0.09163669496774673,-0.07552265375852585,-0.048652105033397675],"max":[0.15065908432006836,0.11096430569887161,0.020168902352452278],"type":"VEC3","name":"LT_NAV_GLASS_FL_vertices#0_POSITION"},{"bufferView":1,"byteOffset":175008,"componentType":5120,"count":63,"type":"VEC4","name":"LT_NAV_GLASS_FL_vertices#0_TANGENT"},{"bufferView":1,"byteOffset":175012,"componentType":5120,"count":63,"type":"VEC4","name":"LT_NAV_GLASS_FL_vertices#0_NORMAL"},{"bufferView":1,"byteOffset":175016,"componentType":5122,"count":63,"type":"VEC2","name":"LT_NAV_GLASS_FL_vertices#0_TEXCOORD_0"},{"bufferView":1,"byteOffset":175020,"componentType":5122,"count":63,"type":"VEC2","name":"LT_NAV_GLASS_FL_vertices#0_TEXCOORD_1"},{"bufferView":1,"byteOffset":175024,"componentType":5123,"count":63,"type":"VEC4","name":"LT_NAV_GLASS_FL_vertices#0_COLOR_0"},{"bufferView":2,"byteOffset":38934,"componentType":5123,"count":234,"type":"SCALAR","name":"LT_NAV_GLASS_FL_indices#0"},{"bufferView":1,"byteOffset":177264,"componentType":5126,"count":100,"min":[-0.019409429281949997,-0.019319389015436172,-0.0064475457184016705],"max":[0.02010755054652691,0.01977597549557686,0.008890182711184025],"type":"VEC3","name":"LT_STROBE_EM_FL_vertices#0_POSITION"},{"bufferView":1,"byteOffset":177276,"componentType":5120,"count":100,"type":"VEC4","name":"LT_STROBE_EM_FL_vertices#0_TANGENT"},{"bufferView":1,"byteOffset":177280,"componentType":5120,"count":100,"type":"VEC4","name":"LT_STROBE_EM_FL_vertices#0_NORMAL"},{"bufferView":1,"byteOffset":177284,"componentType":5122,"count":100,"type":"VEC2","name":"LT_STROBE_EM_FL_vertices#0_TEXCOORD_0"},{"bufferView":1,"byteOffset":177288,"componentType":5122,"count":100,"type":"VEC2","name":"LT_STROBE_EM_FL_vertices#0_TEXCOORD_1"},{"bufferView":1,"byteOffset":177292,"componentType":5123,"count":100,"type":"VEC4","name":"LT_STROBE_EM_FL_vertices#0_COLOR_0"},{"bufferView":2,"byteOffset":39402,"componentType":5123,"count":534,"type":"SCALAR","name":"LT_STROBE_EM_FL_indices#0"},{"bufferView":1,"byteOffset":180864,"componentType":5126,"count":193,"min":[14.422301292419434,2.8374037742614746,-5.974581718444824],"max":[14.48060131072998,2.8957040309906006,-5.925971031188965],"type":"VEC3","name":"nav_l_glass_vertices#0_POSITION"},{"bufferView":1,"byteOffset":180876,"componentType":5120,"count":193,"type":"VEC4","name":"nav_l_glass_vertices#0_TANGENT"},{"bufferView":1,"byteOffset":180880,"componentType":5120,"count":193,"type":"VEC4","name":"nav_l_glass_vertices#0_NORMAL"},{"bufferView":1,"byteOffset":180884,"componentType":5122,"count":193,"type":"VEC2","name":"nav_l_glass_vertices#0_TEXCOORD_0"},{"bufferView":1,"byteOffset":180888,"componentType":5122,"count":193,"type":"VEC2","name":"nav_l_glass_vertices#0_TEXCOORD_1"},{"bufferView":1,"byteOffset":180892,"componentType":5123,"count":193,"type":"VEC4","name":"nav_l_glass_vertices#0_COLOR_0"},{"bufferView":2,"byteOffset":40470,"componentType":5123,"count":930,"type":"SCALAR","name":"nav_l_glass_indices#0"},{"bufferView":1,"byteOffset":187812,"componentType":5126,"count":364,"min":[-0.020547712221741676,-0.07381249219179153,-1.7860558032989502],"max":[1.9868913888931274,1.5784302949905396,0.001317553105764091],"type":"VEC3","name":"WINGLET_L.002_vertices#0_POSITION"},{"bufferView":1,"byteOffset":187824,"componentType":5120,"count":364,"type":"VEC4","name":"WINGLET_L.002_vertices#0_TANGENT"},{"bufferView":1,"byteOffset":187828,"componentType":5120,"count":364,"type":"VEC4","name":"WINGLET_L.002_vertices#0_NORMAL"},{"bufferView":1,"byteOffset":187832,"componentType":5122,"count":364,"type":"VEC2","name":"WINGLET_L.002_vertices#0_TEXCOORD_0"},{"bufferView":1,"byteOffset":187836,"componentType":5122,"count":364,"type":"VEC2","name":"WINGLET_L.002_vertices#0_TEXCOORD_1"},{"bufferView":1,"byteOffset":187840,"componentType":5123,"count":364,"type":"VEC4","name":"WINGLET_L.002_vertices#0_COLOR_0"},{"bufferView":2,"byteOffset":42330,"componentType":5123,"count":1752,"type":"SCALAR","name":"WINGLET_L.002_indices#0"},{"bufferView":1,"byteOffset":200916,"componentType":5126,"count":364,"min":[-0.020547712221741676,-0.07381249219179153,-1.7860558032989502],"max":[1.9868913888931274,1.5784302949905396,0.001317553105764091],"type":"VEC3","name":"WINGLET_L.001_vertices#0_POSITION"},{"bufferView":1,"byteOffset":200928,"componentType":5120,"count":364,"type":"VEC4","name":"WINGLET_L.001_vertices#0_TANGENT"},{"bufferView":1,"byteOffset":200932,"componentType":5120,"count":364,"type":"VEC4","name":"WINGLET_L.001_vertices#0_NORMAL"},{"bufferView":1,"byteOffset":200936,"componentType":5122,"count":364,"type":"VEC2","name":"WINGLET_L.001_vertices#0_TEXCOORD_0"},{"bufferView":1,"byteOffset":200940,"componentType":5122,"count":364,"type":"VEC2","name":"WINGLET_L.001_vertices#0_TEXCOORD_1"},{"bufferView":1,"byteOffset":200944,"componentType":5123,"count":364,"type":"VEC4","name":"WINGLET_L.001_vertices#0_COLOR_0"},{"bufferView":2,"byteOffset":45834,"componentType":5123,"count":1752,"type":"SCALAR","name":"WINGLET_L.001_indices#0"},{"bufferView":1,"byteOffset":214020,"componentType":5126,"count":4852,"min":[-2.201292037963867,-0.07648921012878418,-2.4887607097625732],"max":[0.021906837821006775,1.7722828388214111,-1.2434491946571122e-14],"type":"VEC3","name":"WINGLET_R_vertices#0_POSITION"},{"bufferView":1,"byteOffset":214032,"componentType":5120,"count":4852,"type":"VEC4","name":"WINGLET_R_vertices#0_TANGENT"},{"bufferView":1,"byteOffset":214036,"componentType":5120,"count":4852,"type":"VEC4","name":"WINGLET_R_vertices#0_NORMAL"},{"bufferView":1,"byteOffset":214040,"componentType":5122,"count":4852,"type":"VEC2","name":"WINGLET_R_vertices#0_TEXCOORD_0"},{"bufferView":1,"byteOffset":214044,"componentType":5122,"count":4852,"type":"VEC2","name":"WINGLET_R_vertices#0_TEXCOORD_1"},{"bufferView":1,"byteOffset":214048,"componentType":5123,"count":4852,"type":"VEC4","name":"WINGLET_R_vertices#0_COLOR_0"},{"bufferView":2,"byteOffset":49338,"componentType":5123,"count":18963,"type":"SCALAR","name":"WINGLET_R_indices#0"},{"bufferView":1,"byteOffset":388692,"componentType":5126,"count":141,"min":[-0.02919938415288925,-0.022011255845427513,-0.021914100274443626],"max":[0.000264096655882895,0.021454494446516037,0.021506575867533684],"type":"VEC3","name":"LT_NAV_EM_FL.002_vertices#0_POSITION"},{"bufferView":1,"byteOffset":388704,"componentType":5120,"count":141,"type":"VEC4","name":"LT_NAV_EM_FL.002_vertices#0_TANGENT"},{"bufferView":1,"byteOffset":388708,"componentType":5120,"count":141,"type":"VEC4","name":"LT_NAV_EM_FL.002_vertices#0_NORMAL"},{"bufferView":1,"byteOffset":388712,"componentType":5122,"count":141,"type":"VEC2","name":"LT_NAV_EM_FL.002_vertices#0_TEXCOORD_0"},{"bufferView":1,"byteOffset":388716,"componentType":5122,"count":141,"type":"VEC2","name":"LT_NAV_EM_FL.002_vertices#0_TEXCOORD_1"},{"bufferView":1,"byteOffset":388720,"componentType":5123,"count":141,"type":"VEC4","name":"LT_NAV_EM_FL.002_vertices#0_COLOR_0"},{"bufferView":2,"byteOffset":87264,"componentType":5123,"count":780,"type":"SCALAR","name":"LT_NAV_EM_FL.002_indices#0"},{"bufferView":1,"byteOffset":393768,"componentType":5126,"count":74,"min":[-0.011114120483398438,-0.011100530624389648,-0.015160087496042252],"max":[0.011085514910519123,0.011099576950073242,0.006249906029552221],"type":"VEC3","name":"LT_STROBE_EM_RR_vertices#0_POSITION"},{"bufferView":1,"byteOffset":393780,"componentType":5120,"count":74,"type":"VEC4","name":"LT_STROBE_EM_RR_vertices#0_TANGENT"},{"bufferView":1,"byteOffset":393784,"componentType":5120,"count":74,"type":"VEC4","name":"LT_STROBE_EM_RR_vertices#0_NORMAL"},{"bufferView":1,"byteOffset":393788,"componentType":5122,"count":74,"type":"VEC2","name":"LT_STROBE_EM_RR_vertices#0_TEXCOORD_0"},{"bufferView":1,"byteOffset":393792,"componentType":5122,"count":74,"type":"VEC2","name":"LT_STROBE_EM_RR_vertices#0_TEXCOORD_1"},{"bufferView":1,"byteOffset":393796,"componentType":5123,"count":74,"type":"VEC4","name":"LT_STROBE_EM_RR_vertices#0_COLOR_0"},{"bufferView":2,"byteOffset":88824,"componentType":5123,"count":318,"type":"SCALAR","name":"LT_STROBE_EM_RR_indices#0"},{"bufferView":1,"byteOffset":396432,"componentType":5126,"count":63,"min":[-0.093841552734375,-0.0936288833618164,-0.0954132080078125],"max":[0.10335826873779297,0.09285807609558105,0.08756685256958008],"type":"VEC3","name":"LT_NAV_GLASS_FR_vertices#0_POSITION"},{"bufferView":1,"byteOffset":396444,"componentType":5120,"count":63,"type":"VEC4","name":"LT_NAV_GLASS_FR_vertices#0_TANGENT"},{"bufferView":1,"byteOffset":396448,"componentType":5120,"count":63,"type":"VEC4","name":"LT_NAV_GLASS_FR_vertices#0_NORMAL"},{"bufferView":1,"byteOffset":396452,"componentType":5122,"count":63,"type":"VEC2","name":"LT_NAV_GLASS_FR_vertices#0_TEXCOORD_0"},{"bufferView":1,"byteOffset":396456,"componentType":5122,"count":63,"type":"VEC2","name":"LT_NAV_GLASS_FR_vertices#0_TEXCOORD_1"},{"bufferView":1,"byteOffset":396460,"componentType":5123,"count":63,"type":"VEC4","name":"LT_NAV_GLASS_FR_vertices#0_COLOR_0"},{"bufferView":2,"byteOffset":89460,"componentType":5123,"count":234,"type":"SCALAR","name":"LT_NAV_GLASS_FR_indices#0"},{"bufferView":1,"byteOffset":398700,"componentType":5126,"count":100,"min":[-0.02026420831680298,-0.019335385411977768,-0.007243551779538393],"max":[0.019464725628495216,0.01980813406407833,0.009503157809376717],"type":"VEC3","name":"LT_STROBE_EM_FR_vertices#0_POSITION"},{"bufferView":1,"byteOffset":398712,"componentType":5120,"count":100,"type":"VEC4","name":"LT_STROBE_EM_FR_vertices#0_TANGENT"},{"bufferView":1,"byteOffset":398716,"componentType":5120,"count":100,"type":"VEC4","name":"LT_STROBE_EM_FR_vertices#0_NORMAL"},{"bufferView":1,"byteOffset":398720,"componentType":5122,"count":100,"type":"VEC2","name":"LT_STROBE_EM_FR_vertices#0_TEXCOORD_0"},{"bufferView":1,"byteOffset":398724,"componentType":5122,"count":100,"type":"VEC2","name":"LT_STROBE_EM_FR_vertices#0_TEXCOORD_1"},{"bufferView":1,"byteOffset":398728,"componentType":5123,"count":100,"type":"VEC4","name":"LT_STROBE_EM_FR_vertices#0_COLOR_0"},{"bufferView":2,"byteOffset":89928,"componentType":5123,"count":534,"type":"SCALAR","name":"LT_STROBE_EM_FR_indices#0"},{"bufferView":1,"byteOffset":402300,"componentType":5126,"count":48,"min":[-0.01111507322639227,-0.011100292205810547,0.000250335899181664],"max":[0.01108455564826727,0.011099815368652344,0.006249906029552221],"type":"VEC3","name":"LT_STROBE_EM_RR.001_vertices#0_POSITION"},{"bufferView":1,"byteOffset":402312,"componentType":5120,"count":48,"type":"VEC4","name":"LT_STROBE_EM_RR.001_vertices#0_TANGENT"},{"bufferView":1,"byteOffset":402316,"componentType":5120,"count":48,"type":"VEC4","name":"LT_STROBE_EM_RR.001_vertices#0_NORMAL"},{"bufferView":1,"byteOffset":402320,"componentType":5122,"count":48,"type":"VEC2","name":"LT_STROBE_EM_RR.001_vertices#0_TEXCOORD_0"},{"bufferView":1,"byteOffset":402324,"componentType":5122,"count":48,"type":"VEC2","name":"LT_STROBE_EM_RR.001_vertices#0_TEXCOORD_1"},{"bufferView":1,"byteOffset":402328,"componentType":5123,"count":48,"type":"VEC4","name":"LT_STROBE_EM_RR.001_vertices#0_COLOR_0"},{"bufferView":2,"byteOffset":90996,"componentType":5123,"count":216,"type":"SCALAR","name":"LT_STROBE_EM_RR.001_indices#0"},{"bufferView":1,"byteOffset":404028,"componentType":5126,"count":193,"min":[-14.480599403381348,2.8374035358428955,-5.974591255187988],"max":[-14.4222993850708,2.8957037925720215,-5.925980567932129],"type":"VEC3","name":"nav_r_glass_vertices#0_POSITION"},{"bufferView":1,"byteOffset":404040,"componentType":5120,"count":193,"type":"VEC4","name":"nav_r_glass_vertices#0_TANGENT"},{"bufferView":1,"byteOffset":404044,"componentType":5120,"count":193,"type":"VEC4","name":"nav_r_glass_vertices#0_NORMAL"},{"bufferView":1,"byteOffset":404048,"componentType":5122,"count":193,"type":"VEC2","name":"nav_r_glass_vertices#0_TEXCOORD_0"},{"bufferView":1,"byteOffset":404052,"componentType":5122,"count":193,"type":"VEC2","name":"nav_r_glass_vertices#0_TEXCOORD_1"},{"bufferView":1,"byteOffset":404056,"componentType":5123,"count":193,"type":"VEC4","name":"nav_r_glass_vertices#0_COLOR_0"},{"bufferView":2,"byteOffset":91428,"componentType":5123,"count":930,"type":"SCALAR","name":"nav_r_glass_indices#0"},{"bufferView":1,"byteOffset":410976,"componentType":5126,"count":369,"min":[-1.9868849515914917,-0.07381249219179153,-1.786057710647583],"max":[0.020549792796373367,1.5784302949905396,0.0013170760357752442],"type":"VEC3","name":"WINGLET_R.001_vertices#0_POSITION"},{"bufferView":1,"byteOffset":410988,"componentType":5120,"count":369,"type":"VEC4","name":"WINGLET_R.001_vertices#0_TANGENT"},{"bufferView":1,"byteOffset":410992,"componentType":5120,"count":369,"type":"VEC4","name":"WINGLET_R.001_vertices#0_NORMAL"},{"bufferView":1,"byteOffset":410996,"componentType":5122,"count":369,"type":"VEC2","name":"WINGLET_R.001_vertices#0_TEXCOORD_0"},{"bufferView":1,"byteOffset":411000,"componentType":5122,"count":369,"type":"VEC2","name":"WINGLET_R.001_vertices#0_TEXCOORD_1"},{"bufferView":1,"byteOffset":411004,"componentType":5123,"count":369,"type":"VEC4","name":"WINGLET_R.001_vertices#0_COLOR_0"},{"bufferView":2,"byteOffset":93288,"componentType":5123,"count":1752,"type":"SCALAR","name":"WINGLET_R.001_indices#0"}],"asset":{"generator":"Khronos glTF Blender I/O v3.3.27 and Asobo Studio MSFS Blender I/O v1.1.6","version":"2.0","extensions":{"ASOBO_asset_optimized":{"BoundingBoxMax":[14.48060131072998,2.8957040309906006,0.08756685256958008],"BoundingBoxMin":[-14.480599403381348,-0.0936288833618164,-5.974591255187988],"MajorVersion":4,"MinorVersion":4,"UseCheckerboardMaterialForMissingTextures":true,"UseOnlyFilenameForImageURI":true},"ASOBO_normal_map_convention":{"tangent_space_convention":"DirectX"}}},"bufferViews":[{"buffer":0,"byteLength":13120},{"buffer":0,"byteLength":424260,"byteStride":36,"byteOffset":13120,"target":34962,"name":"BufferViewVertexND"},{"buffer":0,"byteLength":96792,"byteOffset":437380,"target":34963,"name":"BufferViewIndex"}],"extensionsRequired":["ASOBO_unique_id","MSFT_texture_dds"],"materials":[{"name":"LIGHTS","pbrMetallicRoughness":{"metallicFactor":0.5,"roughnessFactor":0.5,"baseColorTexture":{"index":0}}},{"name":"MAT_GLASS","alphaMode":"BLEND","pbrMetallicRoughness":{"baseColorFactor":[1,1,1,0.15000000596046448],"metallicFactor":0,"roughnessFactor":0.10000000149011612},"extensions":{"ASOBO_material_kitty_glass":{}}},{"name":"MAT_WINGS","normalTexture":{"index":1},"occlusionTexture":{"index":2},"pbrMetallicRoughness":{"baseColorTexture":{"index":3},"metallicRoughnessTexture":{"index":2}}},{"name":"FROST","alphaMode":"BLEND","pbrMetallicRoughness":{"baseColorTexture":{"index":6}},"extensions":{"ASOBO_material_blend_gbuffer":{},"ASOBO_material_detail_map":{"blendThreshold":0.10000000149011612,"detailMetalRoughAOTexture":{"index":5},"detailNormalTexture":{"index":4}}},"extras":{"ASOBO_material_code":"GeoDecalFrosted"}}],"meshes":[{"primitives":[{"attributes":{"COLOR_0":13,"NORMAL":10,"POSITION":8,"TANGENT":9,"TEXCOORD_0":11,"TEXCOORD_1":12},"indices":14,"material":0,"mode":4,"extras":{"ASOBO_primitive":{"PrimitiveCount":260,"VertexType":"VTX","VertexVersion":2}}}],"name":"LT_NAV_EM_FL"},{"primitives":[{"attributes":{"COLOR_0":20,"NORMAL":17,"POSITION":15,"TANGENT":16,"TEXCOORD_0":18,"TEXCOORD_1":19},"indices":21,"material":0,"mode":4,"extras":{"ASOBO_primitive":{"PrimitiveCount":106,"VertexType":"VTX","VertexVersion":2}}}],"name":"LT_STROBE_EM_RL"},{"primitives":[{"attributes":{"COLOR_0":27,"NORMAL":24,"POSITION":22,"TANGENT":23,"TEXCOORD_0":25,"TEXCOORD_1":26},"indices":28,"material":1,"mode":4,"extras":{"ASOBO_primitive":{"PrimitiveCount":78,"VertexType":"VTX","VertexVersion":2}}}],"name":"LT_NAV_GLASS_FL"},{"primitives":[{"attributes":{"COLOR_0":34,"NORMAL":31,"POSITION":29,"TANGENT":30,"TEXCOORD_0":32,"TEXCOORD_1":33},"indices":35,"material":0,"mode":4,"extras":{"ASOBO_primitive":{"PrimitiveCount":178,"VertexType":"VTX","VertexVersion":2}}}],"name":"LT_STROBE_EM_FL"},{"primitives":[{"attributes":{"COLOR_0":41,"NORMAL":38,"POSITION":36,"TANGENT":37,"TEXCOORD_0":39,"TEXCOORD_1":40},"indices":42,"material":1,"mode":4,"extras":{"ASOBO_primitive":{"PrimitiveCount":310,"VertexType":"VTX","VertexVersion":2}}}],"name":"nav_l_glass"},{"primitives":[{"attributes":{"COLOR_0":6,"NORMAL":3,"POSITION":1,"TANGENT":2,"TEXCOORD_0":4,"TEXCOORD_1":5},"indices":7,"material":2,"mode":4,"extras":{"ASOBO_primitive":{"PrimitiveCount":6123,"VertexType":"VTX","VertexVersion":2}}}],"name":"WINGLET_L"},{"primitives":[{"attributes":{"COLOR_0":48,"NORMAL":45,"POSITION":43,"TANGENT":44,"TEXCOORD_0":46,"TEXCOORD_1":47},"indices":49,"material":3,"mode":4,"extras":{"ASOBO_primitive":{"PrimitiveCount":584,"VertexType":"VTX","VertexVersion":2}}}],"name":"WINGLET_L.002"},{"primitives":[{"attributes":{"COLOR_0":55,"NORMAL":52,"POSITION":50,"TANGENT":51,"TEXCOORD_0":53,"TEXCOORD_1":54},"indices":56,"material":3,"mode":4,"extras":{"ASOBO_primitive":{"PrimitiveCount":584,"VertexType":"VTX","VertexVersion":2}}}],"name":"WINGLET_L.001"},{"primitives":[{"attributes":{"COLOR_0":69,"NORMAL":66,"POSITION":64,"TANGENT":65,"TEXCOORD_0":67,"TEXCOORD_1":68},"indices":70,"material":0,"mode":4,"extras":{"ASOBO_primitive":{"PrimitiveCount":260,"VertexType":"VTX","VertexVersion":2}}}],"name":"LT_NAV_EM_FL.002"},{"primitives":[{"attributes":{"COLOR_0":76,"NORMAL":73,"POSITION":71,"TANGENT":72,"TEXCOORD_0":74,"TEXCOORD_1":75},"indices":77,"material":0,"mode":4,"extras":{"ASOBO_primitive":{"PrimitiveCount":106,"VertexType":"VTX","VertexVersion":2}}}],"name":"LT_STROBE_EM_RR"},{"primitives":[{"attributes":{"COLOR_0":83,"NORMAL":80,"POSITION":78,"TANGENT":79,"TEXCOORD_0":81,"TEXCOORD_1":82},"indices":84,"material":1,"mode":4,"extras":{"ASOBO_primitive":{"PrimitiveCount":78,"VertexType":"VTX","VertexVersion":2}}}],"name":"LT_NAV_GLASS_FR"},{"primitives":[{"attributes":{"COLOR_0":90,"NORMAL":87,"POSITION":85,"TANGENT":86,"TEXCOORD_0":88,"TEXCOORD_1":89},"indices":91,"material":0,"mode":4,"extras":{"ASOBO_primitive":{"PrimitiveCount":178,"VertexType":"VTX","VertexVersion":2}}}],"name":"LT_STROBE_EM_FR"},{"primitives":[{"attributes":{"COLOR_0":97,"NORMAL":94,"POSITION":92,"TANGENT":93,"TEXCOORD_0":95,"TEXCOORD_1":96},"indices":98,"material":0,"mode":4,"extras":{"ASOBO_primitive":{"PrimitiveCount":72,"VertexType":"VTX","VertexVersion":2}}}],"name":"LT_STROBE_EM_RR.001"},{"primitives":[{"attributes":{"COLOR_0":104,"NORMAL":101,"POSITION":99,"TANGENT":100,"TEXCOORD_0":102,"TEXCOORD_1":103},"indices":105,"material":1,"mode":4,"extras":{"ASOBO_primitive":{"PrimitiveCount":310,"VertexType":"VTX","VertexVersion":2}}}],"name":"nav_r_glass"},{"primitives":[{"attributes":{"COLOR_0":62,"NORMAL":59,"POSITION":57,"TANGENT":58,"TEXCOORD_0":60,"TEXCOORD_1":61},"indices":63,"material":2,"mode":4,"extras":{"ASOBO_primitive":{"PrimitiveCount":6321,"VertexType":"VTX","VertexVersion":2}}}],"name":"WINGLET_R"},{"primitives":[{"attributes":{"COLOR_0":111,"NORMAL":108,"POSITION":106,"TANGENT":107,"TEXCOORD_0":109,"TEXCOORD_1":110},"indices":112,"material":3,"mode":4,"extras":{"ASOBO_primitive":{"PrimitiveCount":584,"VertexType":"VTX","VertexVersion":2}}}],"name":"WINGLET_R.001"}],"nodes":[{"translation":[0.0007061734795570374,-0.01782313734292984,-0.00014662323519587517],"rotation":[0.00012010517821181566,0.005580348894000053,-0.005568253807723522,0.999968945980072],"scale":[0.9999999403953552,1,0.9999999403953552],"extensions":{"ASOBO_unique_id":{"id":"BONE_DOOR_FL_LATCH_INNER"}},"name":"BONE_DOOR_FL_LATCH_INNER"},{"translation":[2.1792948246002197e-7,0.2190968096256256,5.694989795301808e-7],"rotation":[0.08472859859466553,0.996393084526062,0.00039630531682632864,0.004660890903323889],"scale":[1,1.0000001192092896,1],"extensions":{"ASOBO_unique_id":{"id":"BONE_DOOR_FL_LATCH_OUTER"}},"name":"BONE_DOOR_FL_LATCH_OUTER","children":[0]},{"translation":[0.003203010419383645,-0.06911763548851013,0.4911503195762634],"rotation":[0.14276067912578583,0.6925452947616577,-0.693038821220398,0.14034809172153473],"scale":[0.9999999403953552,0.9999995231628418,0.9999998807907104],"extensions":{"ASOBO_unique_id":{"id":"BONE_DOOR_FL_LATCH_ARM"}},"name":"BONE_DOOR_FL_LATCH_ARM","children":[1]},{"translation":[0.09814804792404176,0.1791323721408844,0.29498398303985596],"rotation":[-0.7029447555541992,-0.07128768414258957,-0.0766073688864708,0.7035041451454163],"scale":[0.9999998807907104,1,0.9999999403953552],"extensions":{"ASOBO_unique_id":{"id":"BONE_DOOR_FL_VENT"}},"name":"BONE_DOOR_FL_VENT"},{"translation":[-0.09470989555120468,-0.1635800153017044,0.3398614227771759],"rotation":[-2.22473203596342e-18,-5.684341886080803e-14,-7.685934611738159e-17,1],"extensions":{"ASOBO_unique_id":{"id":"BONE_DOOR_FL_LATCH_BASE"}},"name":"BONE_DOOR_FL_LATCH_BASE"},{"translation":[-2.0349602891656104e-8,0.3649442493915558,4.076406412423239e-8],"rotation":[1.282772927879705e-7,-8.485760361054417e-8,0.17057520151138306,0.9853447675704956],"extensions":{"ASOBO_unique_id":{"id":"BONE_DOOR_FL_HINGE_ARM3"}},"name":"BONE_DOOR_FL_HINGE_ARM3","children":[2,3,4]},{"translation":[1.5663908925489525e-7,0.1491449624300003,-1.5869960634518065e-7],"rotation":[-2.0291142277528706e-7,-1.7606521396373864e-7,-0.431002140045166,0.9023509621620178],"extensions":{"ASOBO_unique_id":{"id":"BONE_DOOR_FL_HINGE_ARM2"}},"name":"BONE_DOOR_FL_HINGE_ARM2","children":[5]},{"translation":[7.450580596923828e-9,0.08237564563751221,1.1175870895385742e-8],"rotation":[0.6799637079238892,-0.1940346509218216,0.19403447210788727,0.6799636483192444],"scale":[1,1,1.0000001192092896],"extensions":{"ASOBO_unique_id":{"id":"BONE_DOOR_FL_HINGE_ARM1"}},"name":"BONE_DOOR_FL_HINGE_ARM1","children":[6]},{"translation":[1.2961723804473877,1.4055886268615725,9.312699317932127],"rotation":[0.999992847442627,0,0.0037825836334377527,0],"extensions":{"ASOBO_unique_id":{"id":"BONE_DOOR_FL_HINGE_BASE"}},"name":"BONE_DOOR_FL_HINGE_BASE","children":[7]},{"translation":[-2.7640112421067897e-12,0.3415597677230835,1.7885261627270665e-7],"rotation":[-0.3078157305717468,-3.7527385643443274e-8,4.3570352659116907e-7,0.951445996761322],"scale":[1,0.9999999403953552,0.9999999403953552],"extensions":{"ASOBO_unique_id":{"id":"BONE_LGEAR_F_ARM_LO"}},"name":"BONE_LGEAR_F_ARM_LO"},{"translation":[-1.6924238011029047e-8,-0.11849705874919891,-0.00012040138244628906],"rotation":[-4.6408906939632295e-8,-0.5871016383171082,0.80951327085495,1.143128898206669e-7],"scale":[1,1.0000001192092896,1],"extensions":{"ASOBO_unique_id":{"id":"BONE_LGEAR_F_ARM_HI"}},"name":"BONE_LGEAR_F_ARM_HI","children":[9]},{"translation":[3.466047004963002e-8,0.1184995174407959,0.0000011920928955078125],"rotation":[1.7763568394002505e-15,8.178540218995216e-20,1.3563248302261854e-8,1],"extensions":{"ASOBO_unique_id":{"id":"BONE_LGEAR_F_PRESS"}},"name":"BONE_LGEAR_F_PRESS"},{"translation":[-2.328333614798339e-8,-0.11851811408996582,-0.6534105539321899],"rotation":[1.7763568394002505e-15,-5.717595450913104e-13,2.0532261600560847e-14,1],"extensions":{"ASOBO_unique_id":{"id":"BONE_LGEAR_F_HINGE_LO"}},"name":"BONE_LGEAR_F_HINGE_LO","children":[11]},{"translation":[-6.821210263296962e-12,0.9191107749938964,1.3864109860151075e-10],"rotation":[-2.5081529742010392e-8,0.7071068286895752,-0.7071068286895752,5.591472813648579e-7],"scale":[1,0.999999701976776,0.9999999403953552],"extensions":{"ASOBO_unique_id":{"id":"BONE_LGEAR_F_STEER"}},"name":"BONE_LGEAR_F_STEER","children":[10,12]},{"translation":[2.1672570937880667e-7,0.6722253561019897,-0.12084484100341795],"rotation":[2.2669915261414736e-14,-1.3387088415584006e-7,1.6934163227233515e-7,1],"extensions":{"ASOBO_unique_id":{"id":"nose_gear_arm_01.002.L"}},"name":"nose_gear_arm_01.002.L"},{"translation":[6.0538241086760536e-12,0.2160645127296448,5.363462491914106e-7],"rotation":[0.02961704693734646,-2.9095428999426076e-7,2.2357377815751533e-7,0.9995614290237428],"scale":[1,0.9999999403953552,1],"extensions":{"ASOBO_unique_id":{"id":"nose_gear_main_hinge_01.001.L"}},"name":"nose_gear_main_hinge_01.001.L"},{"translation":[8.33580315884319e-10,0.21799463033676147,0.004502832889556885],"rotation":[0.5962151885032654,1.8530488432588754e-7,-1.845448451831544e-7,0.8028246760368347],"scale":[1,1,0.9999999403953552],"extensions":{"ASOBO_unique_id":{"id":"nose_gear_spring_top"}},"name":"nose_gear_spring_top"},{"translation":[8.33580315884319e-10,0.21799463033676147,0.004502832889556885],"rotation":[0.587618350982666,1.2445035224573078e-7,-2.9790732014589594e-7,0.8091382384300232],"scale":[1,0.9999999403953552,0.9999999403953552],"extensions":{"ASOBO_unique_id":{"id":"nose_gear_spring_top_track"}},"name":"nose_gear_spring_top_track"},{"translation":[8.33580315884319e-10,0.21799463033676147,0.004502832889556885],"rotation":[0.5962396860122681,3.777701920171239e-7,-4.3854512910002086e-8,0.8028064966201782],"scale":[1,0.9999998807907104,0.9999998807907104],"extensions":{"ASOBO_unique_id":{"id":"nose_gear_spring_top.001"}},"name":"nose_gear_spring_top.001"},{"translation":[6.769610081391875e-7,0.04810929298400879,-0.0652456283569336],"rotation":[-0.4921191334724426,-7.597811304549396e-7,2.9691241820728465e-7,0.8705278635025024],"extensions":{"ASOBO_unique_id":{"id":"nose_gear_main_hinge_01.L"}},"name":"nose_gear_main_hinge_01.L","children":[15,16,17,18]},{"translation":[0.13349959254264832,0.5825809240341187,0.047463517636060715],"rotation":[-0.5000007748603821,0.5000005960464478,-0.4999992251396179,0.499999463558197],"scale":[1,0.9999999403953552,1],"extensions":{"ASOBO_unique_id":{"id":"nose_gear_steering.L.004"}},"name":"nose_gear_steering.L.004"},{"translation":[-0.1338685154914856,0.5825806856155396,0.0474633164703846],"rotation":[-0.4999990463256836,-0.4999995827674866,0.5000009536743164,0.5000004172325134],"extensions":{"ASOBO_unique_id":{"id":"nose_gear_steering.R.004"}},"name":"nose_gear_steering.R.004"},{"translation":[7.593916961923242e-7,0.1190776824951172,-0.4807380437850952],"rotation":[2.5081609678068162e-8,-0.7071068286895752,0.7071068286895752,5.591472813648579e-7],"extensions":{"ASOBO_unique_id":{"id":"BONE_LGEAR_F_MAINSHAFT"}},"name":"BONE_LGEAR_F_MAINSHAFT","children":[13,14,19,20,21]},{"translation":[4.714451051768265e-12,-1.1921380860258068e-7,-1.4900167855103066e-7],"rotation":[-6.51925802230835e-7,1.1921798659386698e-7,1.0570011532706758e-10,1],"extensions":{"ASOBO_unique_id":{"id":"nose_gear_spring_bott_track"}},"name":"nose_gear_spring_bott_track"},{"translation":[1.0399503480584825e-10,0.49701881408691406,0.000011444125448178966],"rotation":[0.9787763357162476,8.767410264454156e-8,1.421941107082603e-7,0.20493192970752716],"extensions":{"ASOBO_unique_id":{"id":"nose_gear_spring_bott"}},"name":"nose_gear_spring_bott","children":[23]},{"translation":[1.0399503480584825e-10,0.49701881408691406,0.000011444125448178966],"rotation":[0.9784955382347108,9.385996690980393e-8,2.6277342612957e-7,0.2062680572271347],"scale":[1,0.9999999403953552,0.9999986290931702],"extensions":{"ASOBO_unique_id":{"id":"nose_gear_spring_bott.001"}},"name":"nose_gear_spring_bott.001"},{"translation":[2.5565327632648405e-11,0.6444170475006104,-2.085950541186321e-7],"rotation":[-0.001874360954388976,3.3724287362701943e-8,9.118331867341569e-9,0.9999982714653016],"scale":[1,1,0.9999999403953552],"extensions":{"ASOBO_unique_id":{"id":"nose_gear_arm_01.001.L"}},"name":"nose_gear_arm_01.001.L","children":[24,25]},{"translation":[2.5565327632648405e-11,0.6444170475006104,-2.085950541186321e-7],"rotation":[0.9452491402626038,1.0393868876690249e-7,7.468261031817748e-8,0.3263496160507202],"scale":[1,1,1.0000001192092896],"extensions":{"ASOBO_unique_id":{"id":"nose_gear_main_hinge_01.002.L"}},"name":"nose_gear_main_hinge_01.002.L"},{"translation":[3.541208570823074e-7,0.9428272247314452,-0.2536400258541107],"rotation":[2.91875079660997e-9,-0.4375516176223755,0.899193286895752,1.3735463255670768e-7],"scale":[1,1.000000238418579,1.0000001192092896],"extensions":{"ASOBO_unique_id":{"id":"nose_gear_arm_01.L"}},"name":"nose_gear_arm_01.L","children":[26,27]},{"translation":[8.940696716308595e-8,0.025452997535467148,0.0000010021030902862549],"rotation":[0.6890150308609009,-0.29956358671188354,0.1588856279850006,0.6405273675918579],"extensions":{"ASOBO_unique_id":{"id":"nose_gear_steering.L.001"}},"name":"nose_gear_steering.L.001"},{"translation":[-0.04924551397562027,0.4040658175945282,-0.08628280460834503],"rotation":[-0.1435423344373703,0.6832967400550842,0.0757729560136795,0.711870551109314],"scale":[0.9999999403953552,1.000000238418579,1],"extensions":{"ASOBO_unique_id":{"id":"nose_gear_steering.L.002"}},"name":"nose_gear_steering.L.002","children":[29]},{"translation":[-0.470689058303833,0.3547382354736328,-0.5493846535682678],"rotation":[-0.4545195400714874,0.43762239813804626,-0.5416752099990845,0.5554157495498657],"scale":[1,0.9999998807907104,0.9999999403953552],"extensions":{"ASOBO_unique_id":{"id":"nose_gear_reardoor.L"}},"name":"nose_gear_reardoor.L","children":[30]},{"translation":[-0.470689594745636,1.7043380737304688,-0.5078045725822449],"rotation":[0.5076403021812439,0.5076404213905334,-0.49224114418029785,0.4922410249710083],"extensions":{"ASOBO_unique_id":{"id":"nose_gear_frdoor.L.001"}},"name":"nose_gear_frdoor.L.001"},{"translation":[-8.940696716308595e-8,0.025452997535467148,0.0000010021030902862549],"rotation":[0.6890151500701904,0.2995634973049164,-0.1588854044675827,0.6405273675918579],"scale":[0.9999999403953552,1,1],"extensions":{"ASOBO_unique_id":{"id":"nose_gear_steering.R.001"}},"name":"nose_gear_steering.R.001"},{"translation":[0.04924551397562027,0.4040658175945282,-0.08628280460834503],"rotation":[-0.1435423344373703,-0.6832967400550842,-0.0757729560136795,0.711870551109314],"scale":[0.9999999403953552,1.000000238418579,1],"extensions":{"ASOBO_unique_id":{"id":"nose_gear_steering.R.002"}},"name":"nose_gear_steering.R.002","children":[33]},{"translation":[0.4710584282875061,0.3547382354736328,-0.5493846535682678],"rotation":[-0.4545195400714874,-0.43762239813804626,0.5416752099990845,0.5554157495498657],"scale":[1,0.9999998807907104,0.9999999403953552],"extensions":{"ASOBO_unique_id":{"id":"nose_gear_reardoor.R"}},"name":"nose_gear_reardoor.R","children":[34]},{"translation":[0.4710589647293091,1.7043380737304688,-0.5078045725822449],"rotation":[0.5076403021812439,-0.5076404213905334,0.49224114418029785,0.4922410249710083],"extensions":{"ASOBO_unique_id":{"id":"nose_gear_frdoor.R.001"}},"name":"nose_gear_frdoor.R.001"},{"translation":[0.000184696342330426,0.02682148665189743,9.671345710754396],"rotation":[0,0.7071068286895752,0.7071068286895752,0],"extensions":{"ASOBO_unique_id":{"id":"BONE_LGEAR_F"}},"name":"BONE_LGEAR_F","children":[22,28,31,32,35,36]},{"translation":[-1.6808602809906006,0.036990683525800705,0.1284475177526474],"rotation":[-0.021180110052227977,0.09063812345266342,0.17401498556137085,0.9803341031074524],"scale":[0.9999999403953552,0.9999999403953552,1],"extensions":{"ASOBO_unique_id":{"id":"BONE_SPOILER_L3.L"}},"name":"BONE_SPOILER_L3.L"},{"translation":[-2.3967032432556152,0.0007157400250434875,-0.000008248411177191883],"rotation":[-0.01156453602015972,0.049335237592458725,0.22793762385845184,0.9723563194274902],"scale":[0.9999999403953552,0.9999998211860656,0.9999998807907104],"extensions":{"ASOBO_unique_id":{"id":"BONE_SLAT_L5_EDGE.L"}},"name":"BONE_SLAT_L5_EDGE.L"},{"translation":[-3.7197632789611816,0.1916755586862564,-0.026350153610110283],"rotation":[-0.005435580387711525,0.04732448235154152,0.1682242900133133,0.9845972061157228],"scale":[0.9999999403953552,0.9999999403953552,0.9999998211860656],"extensions":{"ASOBO_unique_id":{"id":"BONE_AILERON.L"}},"name":"BONE_AILERON.L"},{"translation":[0.3888740539550781,0.14441809058189392,-0.35553598403930664],"rotation":[0.02025485783815384,-0.4871908128261566,0.11780143529176712,0.8650767207145691],"mesh":0,"extensions":{"ASOBO_unique_id":{"id":"LT_NAV_EM_FL_RED"}},"name":"LT_NAV_EM_FL_RED"},{"translation":[2.172374725341797,1.742980718612671,-2.336782693862915],"rotation":[-1,0,0,1.4808031778557054e-7],"mesh":1,"extensions":{"ASOBO_unique_id":{"id":"LT_NAV_EM_RL_WHITE"}},"name":"LT_NAV_EM_RL_WHITE"},{"translation":[0.4044361114501953,0.1483730971813202,-0.3293466567993164],"rotation":[0,0.3410833179950714,0,0.9400330781936646],"mesh":2,"extensions":{"ASOBO_unique_id":{"id":"LT_NAV_GLASS_FL"}},"name":"LT_NAV_GLASS_FL"},{"translation":[0.436152458190918,0.18019303679466248,-0.38668274879455566],"rotation":[-0.09353912621736526,0.282757967710495,0.027717944234609604,0.95421701669693],"mesh":3,"extensions":{"ASOBO_unique_id":{"id":"LT_STROBE_EM_FL_WHITE"}},"name":"LT_STROBE_EM_FL_WHITE"},{"translation":[-12.279294967651367,-1.1234229803085327,3.599719762802124],"mesh":4,"extensions":{"ASOBO_unique_id":{"id":"WINGLET_A_L_GLASS"}},"name":"WINGLET_A_L_GLASS"},{"mesh":5,"extensions":{"ASOBO_unique_id":{"id":"WINGLET_A_L"}},"name":"WINGLET_A_L","children":[41,42,43,44,45]},{"mesh":6,"extensions":{"ASOBO_unique_id":{"id":"WINGLET_A_L_ICING"}},"name":"WINGLET_A_L_ICING"},{"mesh":7,"extensions":{"ASOBO_unique_id":{"id":"WINGLET_A_L_ICING.001"}},"name":"WINGLET_A_L_ICING.001"},{"translation":[-3.5805411338806152,2.681804656982422,-0.007789148949086666],"rotation":[0.47572991251945496,0.5231437087059021,0.4757301807403565,0.5231469869613647],"scale":[0.9999988675117492,0.9999818801879884,0.9999997615814208],"extensions":{"ASOBO_unique_id":{"id":"WINGTIP_L"}},"name":"WINGTIP_L","children":[46,47,48]},{"translation":[-6.99075020094142e-10,2.3595471382141113,8.954993546694824e-8],"rotation":[-0.0029469747096300125,-7.075100867583868e-14,2.1956823512137017e-11,0.9999956488609314],"extensions":{"ASOBO_unique_id":{"id":"BONE_WING_4.L"}},"name":"BONE_WING_4.L","children":[39,40,49]},{"translation":[-2.662403345108032,0.010410681366920471,0.10004930943250656],"rotation":[-0.02118008583784103,0.09063809365034103,0.17401504516601562,0.9803341031074524],"scale":[0.9999998807907104,0.9999999403953552,1],"extensions":{"ASOBO_unique_id":{"id":"BONE_SPOILER_L5.L"}},"name":"BONE_SPOILER_L5.L"},{"translation":[-0.22978195548057556,0.05338051915168762,-0.08783465623855591],"rotation":[0.003501763567328453,0.04378438740968704,-0.0027619258034974337,0.9990310668945312],"scale":[0.9999999403953552,0.9999999403953552,1],"extensions":{"ASOBO_unique_id":{"id":"BONE_WING_L2.009.L"}},"name":"BONE_WING_L2.009.L"},{"translation":[-2.917844772338867,-0.06048469990491867,-0.00744570093229413],"rotation":[-0.00918631162494421,0.0484515018761158,0.1566835343837738,0.9864169359207152],"scale":[1,1.0000001192092896,1],"extensions":{"ASOBO_unique_id":{"id":"BONE_WING_L2.012.L"}},"name":"BONE_WING_L2.012.L","children":[52]},{"translation":[-1.2225936651229858,-0.0005644857883453369,0.000007370429557340685],"rotation":[-0.01189817301928997,0.05062727630138397,0.2284024953842163,0.972176730632782],"scale":[1,1,1.0000001192092896],"extensions":{"ASOBO_unique_id":{"id":"BONE_SLAT_L4_EDGE.L"}},"name":"BONE_SLAT_L4_EDGE.L"},{"translation":[-2.9282565116882324,1.168447494506836,-0.2530224919319153],"rotation":[-0.506693959236145,0.4788857400417328,0.49261537194252014,0.5208261013031006],"scale":[1,1,1.0000001192092896],"extensions":{"ASOBO_unique_id":{"id":"BONE_WING_L2.015.L"}},"name":"BONE_WING_L2.015.L"},{"translation":[1.3194306758279596e-14,1.07802414894104,2.2351800410547185e-8],"rotation":[7.450580596923828e-9,-3.725358244111021e-9,-2.6527665700963346e-17,1],"scale":[1,0.9999999403953552,1],"extensions":{"ASOBO_unique_id":{"id":"BONE_WING_3B.L"}},"name":"BONE_WING_3B.L","children":[50,51,53,54,55]},{"translation":[-2.266500473022461,0.011495448648929596,0.111503504216671],"rotation":[-0.02118004858493805,0.09063811600208282,0.1740151196718216,0.9803341627120972],"extensions":{"ASOBO_unique_id":{"id":"BONE_SPOILER_L4.L"}},"name":"BONE_SPOILER_L4.L"},{"translation":[-0.23677939176559448,0.06925603747367859,-0.09459181129932404],"rotation":[0.003596183378249407,0.04378555342555046,-0.003417497733607888,0.9990286827087402],"scale":[1,0.9999999403953552,1],"extensions":{"ASOBO_unique_id":{"id":"BONE_WING_L2.010.L"}},"name":"BONE_WING_L2.010.L"},{"translation":[-2.608473062515259,0.06953016668558121,-0.004514254629611969],"rotation":[-0.009192212484776974,0.04845075309276581,0.15680500864982605,0.986397624015808],"scale":[0.9999999403953552,1,1],"extensions":{"ASOBO_unique_id":{"id":"BONE_WING_L2.013.L"}},"name":"BONE_WING_L2.013.L","children":[58]},{"translation":[-0.6933223605155945,0.012757856398820875,8.195858214321562e-8],"rotation":[-0.011887172237038612,0.050630100071430206,0.22831612825393677,0.9721970558166504],"scale":[0.9999999403953552,0.9999999403953552,1],"extensions":{"ASOBO_unique_id":{"id":"BONE_SLAT_L3_EDGE.L"}},"name":"BONE_SLAT_L3_EDGE.L"},{"translation":[6.9922867496075e-10,1.6185581684112549,2.2208867633821683e-8],"rotation":[-6.705522537231445e-8,-3.7260265983718455e-9,8.078552911636248e-17,1],"extensions":{"ASOBO_unique_id":{"id":"BONE_WING_3A.L"}},"name":"BONE_WING_3A.L","children":[56,57,59,60]},{"translation":[-2.1164321899414062,1.1419379711151123,-0.28530994057655334],"rotation":[-0.5041289925575256,0.4842771291732788,0.4952698349952698,0.5157881379127502],"scale":[1,1,0.9999999403953552],"extensions":{"ASOBO_unique_id":{"id":"BONE_WING_L2.014.L"}},"name":"BONE_WING_L2.014.L"},{"translation":[0.1177251860499382,0.000012073665857315063,0.000007890898814366665],"rotation":[-0.011893566697835922,0.050628602504730225,0.22834311425685885,0.9721906781196594],"extensions":{"ASOBO_unique_id":{"id":"BONE_SLAT_L2.001.L"}},"name":"BONE_SLAT_L2.001.L"},{"translation":[-0.2466839104890823,0.06665978580713272,-0.10633647441864014],"rotation":[0.0034922994673252106,0.04378175362944603,-0.002702024532482028,0.9990313649177552],"scale":[0.9999998807907104,0.9999999403953552,0.9999999403953552],"extensions":{"ASOBO_unique_id":{"id":"BONE_WING_L2.008.L"}},"name":"BONE_WING_L2.008.L"},{"translation":[-2.067772626876831,0.034284040331840515,0.0006000467692501843],"rotation":[-0.0092054083943367,0.048449065536260605,0.15707480907440186,0.986354649066925],"scale":[0.9999999403953552,1,0.9999999403953552],"extensions":{"ASOBO_unique_id":{"id":"BONE_WING_L2.011.L"}},"name":"BONE_WING_L2.011.L","children":[64]},{"translation":[1.9062298406424816e-9,3.131274461746216,-1.6577935468831132e-8],"rotation":[-0.01304058451205492,-3.9982708699426446e-8,-6.186235412819484e-10,0.9999150633811952],"scale":[1,1,1.0000001192092896],"extensions":{"ASOBO_unique_id":{"id":"BONE_WING_2.L"}},"name":"BONE_WING_2.L","children":[38,61,62,63,65]},{"translation":[-6.791469786548987e-8,0.30393946170806885,-2.1327650756575167e-8],"rotation":[-0.05212759971618652,-0.000009625155144021846,-6.732814767929085e-7,0.9986404180526732],"scale":[1,1,1.0000001192092896],"extensions":{"ASOBO_unique_id":{"id":"Wing_01_LG_main.003.L"}},"name":"Wing_01_LG_main.003.L"},{"translation":[0.0043662311509251595,-0.022953465580940247,0.08200231939554214],"rotation":[0.000015962270481395535,0.1415654420852661,-0.989928901195526,0.0000011244950428590528],"scale":[1,1.000000238418579,1.0000009536743164],"extensions":{"ASOBO_unique_id":{"id":"Wing_01_LG_main.006.L"}},"name":"Wing_01_LG_main.006.L"},{"translation":[-6.69280780130066e-7,0.2991879880428314,0.030005136504769325],"rotation":[0.7035655975341797,-0.04235829785466194,-0.7058389782905579,0.07065823674201965],"scale":[1.0000008344650269,1.000000238418579,1.00001323223114],"extensions":{"ASOBO_unique_id":{"id":"Wing_01_LG_main.007.L"}},"name":"Wing_01_LG_main.007.L"},{"translation":[0.001917235553264618,0.000033375530620105565,-0.00007358100265264511],"rotation":[0.01790441945195198,0.009371371939778328,0.809012770652771,0.5874435901641846],"scale":[1.000000238418579,1,1],"extensions":{"ASOBO_unique_id":{"id":"Bone_spring_r_top_track_02.L"}},"name":"Bone_spring_r_top_track_02.L"},{"translation":[0.001917235553264618,0.000033375530620105565,-0.00007358100265264511],"rotation":[0.017917955294251442,0.009362970478832722,0.8095321655273438,0.5867273807525635],"scale":[1.0000001192092896,1,1],"extensions":{"ASOBO_unique_id":{"id":"Bone_spring_r_top_01.L"}},"name":"Bone_spring_r_top_01.L"},{"translation":[0.001917235553264618,0.000033375530620105565,-0.00007358100265264511],"rotation":[0.015095635317265987,0.011404900811612606,0.809589684009552,0.5866913199424744],"scale":[1.0000001192092896,1,1],"extensions":{"ASOBO_unique_id":{"id":"Bone_spring_r_bake.L"}},"name":"Bone_spring_r_bake.L"},{"translation":[3.1956460588844493e-7,0.17389123141765594,-0.017830749973654747],"rotation":[0.7196090817451477,0.03318211808800697,0.6927290558815002,0.03447066992521286],"scale":[1,1.0000001192092896,1.0000208616256714],"extensions":{"ASOBO_unique_id":{"id":"Bone.003.L.001"}},"name":"Bone.003.L.001","children":[70,71,72]},{"translation":[-0.0475609228014946,0.3045099675655365,-0.17525599896907806],"rotation":[0.4237253665924072,-0.5660794377326965,0.42373126745224,0.5660942196846008],"extensions":{"ASOBO_unique_id":{"id":"Wing_01_LG_main.002.L"}},"name":"Wing_01_LG_main.002.L","children":[67,68,69,73]},{"translation":[7.159019332902973e-8,0.3790698647499085,4.7862044993962634e-8],"rotation":[-0.4738559424877167,2.950078226149344e-7,0.000001054063432093244,0.8806024193763733],"extensions":{"ASOBO_unique_id":{"id":"LG_L_ARM_LOWER"}},"name":"LG_L_ARM_LOWER"},{"translation":[-0.000002047815087280469,0.4135563373565674,0.06531272828578949],"rotation":[-0.8573049306869507,0.000001388256237078167,0.0000011684228411468212,0.5148089528083801],"extensions":{"ASOBO_unique_id":{"id":"LG_L_ARM_ARRESTOR"}},"name":"LG_L_ARM_ARRESTOR"},{"translation":[4.546864147414454e-7,1.2539474964141846,0.1475239396095276],"rotation":[0.3044528067111969,4.6131484054967586e-7,-9.310106179327704e-7,0.952527403831482],"scale":[1,0.9999999403953552,0.9999999403953552],"extensions":{"ASOBO_unique_id":{"id":"LG_L_ARM_UPPER"}},"name":"LG_L_ARM_UPPER","children":[75,76]},{"translation":[-0.07332421839237213,0.23001477122306824,-0.08191989362239838],"rotation":[0.6946096420288086,-0.134755477309227,0.06323868036270142,0.7038176655769348],"scale":[0.9999999403953552,1,0.9999999403953552],"extensions":{"ASOBO_unique_id":{"id":"LG_main_shaft.L.001"}},"name":"LG_main_shaft.L.001"},{"translation":[0.15144267678260803,0.9258103370666504,-0.2651668190956116],"rotation":[0.7109215259552002,-0.028356507420539856,0.028356626629829407,0.7021270990371704],"scale":[1,1,0.9999999403953552],"extensions":{"ASOBO_unique_id":{"id":"LG_door_01.L"}},"name":"LG_door_01.L","children":[78]},{"translation":[0.000001422848640686425,1.9081047773361208,0.125696063041687],"rotation":[5.285405109134445e-7,-0.7071068286895752,0.7071068286895752,8.963222626334755e-7],"extensions":{"ASOBO_unique_id":{"id":"LG_L_WHEELROT_PIVOT"}},"name":"LG_L_WHEELROT_PIVOT"},{"translation":[-0.06077178195118904,1.0125653743743896,-0.17525705695152283],"rotation":[-0.0028290399350225925,7.570828302050359e-7,-2.7262629487267986e-7,0.9999960064888],"scale":[1,1,0.9999999403953552],"extensions":{"ASOBO_unique_id":{"id":"Bone.003.L"}},"name":"Bone.003.L"},{"translation":[-1.3372814655303955,1.125399827957153,-0.057137370109558105],"rotation":[-0.530683696269989,-0.4673056900501251,0.5306863188743591,0.46730339527130127],"scale":[1.0000001192092896,1,1],"extensions":{"ASOBO_unique_id":{"id":"LG_main_shaft.L"}},"name":"LG_main_shaft.L","children":[74,77,79,80,81]},{"translation":[0.011430989019572737,1.3814769983291626,-0.831672191619873],"rotation":[9.145483090833296e-7,5.5402824187633475e-15,-1,1.38637934682731e-13],"extensions":{"ASOBO_unique_id":{"id":"BONE_ENG_REV_L"}},"name":"BONE_ENG_REV_L"},{"translation":[0.012526274658739569,1.6361228227615356,-0.8250317573547363],"rotation":[-0.0000056719695749052335,-0.0000017038005353242625,-0.7071068286895752,0.7071067094802856],"extensions":{"ASOBO_unique_id":{"id":"BONE_ENG_FAN_L"}},"name":"BONE_ENG_FAN_L"},{"translation":[1.242465257644653,2.5436623096466064,-0.10165533423423768],"rotation":[-0.04481623694300651,-0.044816117733716965,-0.7056851387023926,0.7056851983070374],"scale":[1.0000001192092896,1,1.0000001192092896],"extensions":{"ASOBO_unique_id":{"id":"BONE_ENG_MOUNT_L"}},"name":"BONE_ENG_MOUNT_L","children":[83,84]},{"translation":[-5.8598743635229775e-9,0.7345345616340637,1.8377113519818522e-7],"rotation":[-0.653085470199585,-0.2710529863834381,-0.6531000137329102,0.2710537910461426],"scale":[1.000000238418579,1,0.9999998807907104],"extensions":{"ASOBO_unique_id":{"id":"Wing_01_LG_main.008.L"}},"name":"Wing_01_LG_main.008.L"},{"translation":[-4.1443854570388794e-8,3.739905878319405e-7,2.0430888980627063e-8],"rotation":[-0.0000011898533784915344,3.763939844247943e-7,3.425607815188414e-7,1],"scale":[0.9999999403953552,0.9999999403953552,0.9999998807907104],"extensions":{"ASOBO_unique_id":{"id":"Bone_spring_r_bot_track_02.L"}},"name":"Bone_spring_r_bot_track_02.L"},{"translation":[-0.006563980598002672,0.582935094833374,-0.000041545601561665535],"rotation":[0.9359630942344666,0.35209140181541443,0.00007148965960368514,0.0021957652643322945],"scale":[1.0000001192092896,1.000000238418579,0.9999999403953552],"extensions":{"ASOBO_unique_id":{"id":"Bone_spring_r_bot_01.L"}},"name":"Bone_spring_r_bot_01.L","children":[87]},{"translation":[-0.006563980132341385,0.582935094833374,-0.00004166481085121632],"rotation":[0.935963213443756,0.35209107398986816,0.00007263904990395531,0.0021975678391754627],"scale":[1.0000001192092896,1,0.9999998807907104],"extensions":{"ASOBO_unique_id":{"id":"Bone_spring_r_bake.001.L"}},"name":"Bone_spring_r_bake.001.L"},{"translation":[-3.5662196751218296e-8,0.7345349192619324,1.837693162087817e-7],"rotation":[-0.00000363041840500955,0.0031564398668706417,0.0011316478485241532,0.9999943971633912],"scale":[0.9999999403953552,1,1],"extensions":{"ASOBO_unique_id":{"id":"Bone.002.L"}},"name":"Bone.002.L","children":[88,89]},{"translation":[-1.162024974822998,0.03553365170955658,0.11071009188890456],"rotation":[-0.31104105710983276,-0.6350197792053223,0.3110407590866089,0.6350252628326416],"scale":[1,1.0000001192092896,1],"extensions":{"ASOBO_unique_id":{"id":"Bone.001.L"}},"name":"Bone.001.L","children":[86,90]},{"translation":[-1.4639955759048462,1.3242146968841553,-0.17342858016490936],"rotation":[0.7068971991539001,0.7033844590187073,-0.07247977703809738,0.017130883410573006],"scale":[1.0000001192092896,1.000000238418579,1],"extensions":{"ASOBO_unique_id":{"id":"LG_door_02.L"}},"name":"LG_door_02.L"},{"translation":[-1.890227198600769,0.011796525679528711,0.09248992800712584],"rotation":[0.00029727586661465466,0.06338432431221008,-0.004680342506617308,0.9979782104492188],"scale":[1,1,1.0000001192092896],"extensions":{"ASOBO_unique_id":{"id":"BONE_SPOILER_L1.L"}},"name":"BONE_SPOILER_L1.L"},{"translation":[-0.02287299931049347,-0.11172182857990264,0.38678866624832153],"rotation":[0.02790839783847332,0.734420657157898,0.00044584990246221423,0.6781203746795654],"scale":[1,0.9999999403953552,1],"extensions":{"ASOBO_unique_id":{"id":"BONE_WING_L1.003.L"}},"name":"BONE_WING_L1.003.L"},{"translation":[-2.1302757263183594,0.045618630945682526,-0.3015107810497284],"rotation":[-0.02516326867043972,-0.6895375847816467,-0.023984936997294422,0.7234151363372803],"scale":[1.0000001192092896,1.0000001192092896,1],"extensions":{"ASOBO_unique_id":{"id":"BONE_WING_L1.004.L"}},"name":"BONE_WING_L1.004.L","children":[94]},{"translation":[-1.8757505416870115,1.5551730394363403,0.09248998761177064],"rotation":[0.0002972870715893805,0.06338433921337128,-0.004680342972278595,0.9979782104492188],"scale":[1,1.000000238418579,1.0000001192092896],"extensions":{"ASOBO_unique_id":{"id":"BONE_SPOILER_L2.L"}},"name":"BONE_SPOILER_L2.L"},{"translation":[1.6678290367126465,0.003002212615683675,0.006553935818374157],"rotation":[-0.014110607095062733,0.0561528243124485,0.2275671660900116,0.9720396995544434],"scale":[0.9999999403953552,1,1],"extensions":{"ASOBO_unique_id":{"id":"BONE_SLAT_L1_EDGE.L"}},"name":"BONE_SLAT_L1_EDGE.L"},{"translation":[-7.450580596923828e-9,0,7.450580596923828e-9],"rotation":[4.36235119138928e-8,-0.06337852030992508,-0.9979895949363708,2.7703379590349182e-9],"scale":[1,1.0000003576278689,1.0000184774398804],"extensions":{"ASOBO_unique_id":{"id":"BONE_WING_1.L"}},"name":"BONE_WING_1.L","children":[66,82,85,91,92,93,95,96,97]},{"translation":[1.4722042083740234,-0.0275462344288826,-0.019180424511432648],"rotation":[-0.5,0.5,0.5,0.5],"extensions":{"ASOBO_unique_id":{"id":"BONE_BELLY.L"}},"name":"BONE_BELLY.L","children":[98]},{"translation":[3.3341164588928223,-0.15599097311496735,-1.7853100299835205],"rotation":[-0.7140776515007019,-0.0010939545463770628,-0.0010939545463770628,0.7000648379325867],"extensions":{"ASOBO_unique_id":{"id":"BONE_WING_L1.005.L"}},"name":"BONE_WING_L1.005.L"},{"translation":[2.3676600456237793,0.052202239632606506,-1.3082836866378784],"rotation":[-0.4494174122810364,-0.5330362319946289,-0.4482036232948303,0.5594728589057922],"scale":[1,1.0000001192092896,1],"extensions":{"ASOBO_unique_id":{"id":"LG_main_shaft.L.002"}},"name":"LG_main_shaft.L.002"},{"translation":[-0.0031834617257118225,2.5470714569091797,-14.159379959106444],"rotation":[-0.1469731479883194,-0.7081873416900635,0.15423499047756195,0.6731129884719849],"scale":[0.9999999403953552,1,0.9999999403953552],"extensions":{"ASOBO_unique_id":{"id":"BONE_RUDDER"}},"name":"BONE_RUDDER"},{"translation":[-0.061006031930446625,0.5320927500724792,0.8620094060897827],"rotation":[-0.06384328752756119,0.01002931222319603,-0.00468475604429841,0.9978986382484436],"scale":[1,1.0000001192092896,1],"extensions":{"ASOBO_unique_id":{"id":"BONE_ELV_L"}},"name":"BONE_ELV_L"},{"translation":[0.5420382618904114,1.6872506141662598,-13.73387050628662],"rotation":[-0.6372618079185486,-0.7293028235435486,0.16875246167182922,0.18313217163085935],"scale":[1.0000001192092896,0.9999999403953552,1],"extensions":{"ASOBO_unique_id":{"id":"BONE_ELV_TRIM_L"}},"name":"BONE_ELV_TRIM_L","children":[103]},{"translation":[0.00018450248171575367,0.12456127256155014,9.69840145111084],"extensions":{"ASOBO_unique_id":{"id":"nose_gear_arm_01_pole.L"}},"name":"nose_gear_arm_01_pole.L"},{"translation":[-0.0024477168917655945,0.2813241183757782,0.015234708786010742],"rotation":[0.9970014095306396,-0.001881827600300312,0.07678109407424927,0.009453389793634416],"scale":[1.0000001192092896,1,1.0000001192092896],"extensions":{"ASOBO_unique_id":{"id":"BONE_WIPER_L_HINGE_LO"}},"name":"BONE_WIPER_L_HINGE_LO"},{"translation":[-0.0024477168917655945,0.2813241183757782,0.015234708786010742],"rotation":[-0.009281023405492306,-0.00001167699974757852,-0.002602020278573036,0.99995356798172],"scale":[1,0.9999999403953552,1],"extensions":{"ASOBO_unique_id":{"id":"BONE_WIPER_L_HINGE_HI"}},"name":"BONE_WIPER_L_HINGE_HI"},{"translation":[4.470348358154297e-7,0.33915242552757263,8.89413058757782e-8],"rotation":[0.04350024461746216,-0.0011675533605739474,0.21401874721050265,0.9758598208427428],"scale":[0.9999999403953552,0.9999997615814208,0.9999998211860656],"extensions":{"ASOBO_unique_id":{"id":"BONE_WIPER_L_ARM"}},"name":"BONE_WIPER_L_ARM","children":[106,107]},{"translation":[0.16052834689617157,1.4476780891418457,12.506134033203123],"rotation":[0.13483048975467682,-0.8901067972183228,0.4093122184276581,0.14830434322357178],"scale":[0.9999999403953552,0.9999999403953552,1],"extensions":{"ASOBO_unique_id":{"id":"BONE_WIPER_L_BASE"}},"name":"BONE_WIPER_L_BASE","children":[108]},{"translation":[-2.367661476135254,0.05220242962241173,-1.308284044265747],"rotation":[-0.4494174122810364,0.5330362915992737,0.4482036232948303,0.5594728589057922],"scale":[1,1.0000001192092896,1],"extensions":{"ASOBO_unique_id":{"id":"LG_main_shaft.R.002"}},"name":"LG_main_shaft.R.002"},{"translation":[0.061006031930446625,0.5320927500724792,0.8620094060897827],"rotation":[-0.06384328752756119,-0.01002931222319603,0.00468475604429841,0.9978986382484436],"scale":[1,1.0000001192092896,1],"extensions":{"ASOBO_unique_id":{"id":"BONE_ELV_R"}},"name":"BONE_ELV_R"},{"translation":[-0.5420382618904114,1.6872506141662598,-13.73387050628662],"rotation":[-0.6372618079185486,0.7293028235435486,-0.16875246167182922,0.18313217163085935],"scale":[1.0000001192092896,0.9999999403953552,1],"extensions":{"ASOBO_unique_id":{"id":"BONE_ELV_TRIM_R"}},"name":"BONE_ELV_TRIM_R","children":[111]},{"translation":[0.02066133543848991,0.0028888145461678505,0.00582692539319396],"rotation":[-0.007794640026986599,-0.9792559742927552,-0.001606313860975206,0.20247076451778412],"scale":[1,0.9999998807907104,0.9999999403953552],"extensions":{"ASOBO_unique_id":{"id":"BONE_DOOR_RL_LATCH_INNER"}},"name":"BONE_DOOR_RL_LATCH_INNER"},{"translation":[0.22415606677532196,0.010683550499379637,-0.055814165621995926],"rotation":[-0.005043878685683012,-0.7080895304679871,0.004961049649864435,0.7060872316360474],"scale":[0.9999999403953552,0.9999996423721312,0.9999999403953552],"extensions":{"ASOBO_unique_id":{"id":"BONE_DOOR_RL_LATCH_OUTER"}},"name":"BONE_DOOR_RL_LATCH_OUTER","children":[113]},{"translation":[0.0765492171049118,-0.03537733852863312,0.3885014057159424],"rotation":[0.7076848149299622,0.024461224675178528,-0.7056809067726135,0.024460403248667717],"scale":[1.0000057220458984,1.0000001192092896,1],"extensions":{"ASOBO_unique_id":{"id":"BONE_DOOR_RL_LATCH_ARM"}},"name":"BONE_DOOR_RL_LATCH_ARM","children":[114]},{"translation":[0.1608985811471939,-0.32063183188438416,0.17508503794670105],"rotation":[-0.7070098519325256,-0.006411790382117033,-0.011706584133207798,0.7070777416229248],"scale":[1,0.9999999403953552,0.9999999403953552],"extensions":{"ASOBO_unique_id":{"id":"BONE_DOOR_RR_VENT"}},"name":"BONE_DOOR_RR_VENT"},{"translation":[0.01489331852644682,-0.22248348593711853,0.25194501876831055],"rotation":[-1.967221496812499e-9,4.3597832899422435e-8,0.04507613554596901,0.9989835619926452],"extensions":{"ASOBO_unique_id":{"id":"BONE_DOOR_RR_LATCH_BASE"}},"name":"BONE_DOOR_RR_LATCH_BASE"},{"translation":[4.8920298922894296e-8,0.2832023501396179,5.864347940587322e-8],"rotation":[4.0427295289191534e-8,1.2307671681810461e-7,0.13257116079330444,0.991173505783081],"scale":[0.9999999403953552,0.9999998807907104,1],"extensions":{"ASOBO_unique_id":{"id":"BONE_DOOR_RL_HINGE_ARM3"}},"name":"BONE_DOOR_RL_HINGE_ARM3","children":[115,116,117]},{"translation":[-2.9267701506796584e-7,0.1560259908437729,-8.629348968725027e-8],"rotation":[-7.641433796834464e-8,-1.982889443752356e-7,-0.4493959844112396,0.8933326601982117],"extensions":{"ASOBO_unique_id":{"id":"BONE_DOOR_RL_HINGE_ARM2"}},"name":"BONE_DOOR_RL_HINGE_ARM2","children":[118]},{"translation":[-4.4703483581542975e-8,0.08237564563751221,-7.35744833946228e-8],"rotation":[0.6673539280891418,-0.23374934494495392,0.2337493598461151,0.6673539280891418],"extensions":{"ASOBO_unique_id":{"id":"BONE_DOOR_RL_HINGE_ARM1"}},"name":"BONE_DOOR_RL_HINGE_ARM1","children":[119]},{"translation":[1.305615782737732,1.4055886268615725,-9.065008163452148],"rotation":[0.999992847442627,0,0.0037825836334377527,0],"extensions":{"ASOBO_unique_id":{"id":"BONE_DOOR_RL_HINGE_BASE"}},"name":"BONE_DOOR_RL_HINGE_BASE","children":[120]},{"translation":[-0.0007066978141665459,-0.01782160811126232,-0.00014197127893567085],"rotation":[0.00012158530444139616,-0.00001233750026585767,0.005568322259932756,0.9999845027923584],"extensions":{"ASOBO_unique_id":{"id":"BONE_DOOR_FR_LATCH_INNER"}},"name":"BONE_DOOR_FR_LATCH_INNER"},{"translation":[1.809667082852684e-9,0.21909666061401367,-4.592584446072579e-7],"rotation":[-0.0005077267996966839,0.00015848057228140533,-0.08472814410924911,0.996403992176056],"scale":[0.9999999403953552,1,0.9999998807907104],"extensions":{"ASOBO_unique_id":{"id":"BONE_DOOR_FR_LATCH_OUTER"}},"name":"BONE_DOOR_FR_LATCH_OUTER","children":[122]},{"translation":[-0.02353941649198532,-0.07311909645795822,0.4841958284378052],"rotation":[-0.6932665705680847,0.14145749807357788,0.14165076613426208,0.6923195719718933],"scale":[1,1,1.0000001192092896],"extensions":{"ASOBO_unique_id":{"id":"BONE_DOOR_FR_LATCH_ARM"}},"name":"BONE_DOOR_FR_LATCH_ARM","children":[123]},{"translation":[-0.1289452463388443,0.14451034367084503,0.2439878284931183],"rotation":[-0.7027772068977356,0.07813016325235367,0.07813005149364471,0.702777087688446],"scale":[1,1.0000001192092896,1.0000001192092896],"extensions":{"ASOBO_unique_id":{"id":"BONE_DOOR_FR_VENT"}},"name":"BONE_DOOR_FR_VENT"},{"translation":[0.10633502155542374,-0.2080783247947693,0.23965978622436523],"rotation":[-1.193487528010557e-15,-9.037215420448774e-14,-1.2041089902936621e-8,1],"extensions":{"ASOBO_unique_id":{"id":"BONE_DOOR_FR_LATCH_BASE"}},"name":"BONE_DOOR_FR_LATCH_BASE"},{"translation":[2.51061663902874e-7,0.2715565860271454,7.286240588655346e-8],"rotation":[-5.6811124693467725e-8,9.676621459675516e-8,-0.28202101588249207,0.9594082236289978],"extensions":{"ASOBO_unique_id":{"id":"BONE_DOOR_FR_HINGE_ARM3"}},"name":"BONE_DOOR_FR_HINGE_ARM3","children":[124,125,126]},{"translation":[-1.5875656345087918e-7,0.190106064081192,1.1920928955078125e-7],"rotation":[9.344666551669435e-8,-1.1880455730306495e-7,0.6182315945625305,0.7859960198402405],"scale":[0.9999999403953552,0.9999999403953552,1],"extensions":{"ASOBO_unique_id":{"id":"BONE_DOOR_FR_HINGE_ARM2"}},"name":"BONE_DOOR_FR_HINGE_ARM2","children":[127]},{"translation":[0,0.12382698059082033,0],"rotation":[0.6565099954605103,0.262668251991272,-0.26266828179359436,0.6565101146697998],"scale":[1,0.9999999403953552,0.9999999403953552],"extensions":{"ASOBO_unique_id":{"id":"BONE_DOOR_FR_HINGE_ARM1"}},"name":"BONE_DOOR_FR_HINGE_ARM1","children":[128]},{"translation":[-1.2897241115570068,1.446646809577942,9.71320343017578],"rotation":[1,0,0,0],"extensions":{"ASOBO_unique_id":{"id":"BONE_DOOR_FR_HINGE_BASE"}},"name":"BONE_DOOR_FR_HINGE_BASE","children":[129]},{"translation":[0.02317303791642189,0.03264741227030754,-0.0008900755201466382],"rotation":[-0.00012289013830013573,-0.000004768295639223652,0.007052767090499401,0.9999751448631288],"scale":[1,0.9999998807907104,1],"extensions":{"ASOBO_unique_id":{"id":"BONE_DOOR_RR_LATCH_INNER"}},"name":"BONE_DOOR_RR_LATCH_INNER"},{"translation":[-0.08044607937335968,0.0005407484131865203,-0.20701925456523895],"rotation":[0.00012577160669025034,0.000004880143933405634,-0.007134332787245512,0.9999745488166808],"scale":[1,1,0.9999999403953552],"extensions":{"ASOBO_unique_id":{"id":"BONE_DOOR_RR_LATCH_OUTER"}},"name":"BONE_DOOR_RR_LATCH_OUTER","children":[131]},{"translation":[-0.04825584590435028,-0.2144903689622879,0.5148214101791382],"rotation":[-0.00012583346688188612,7.8900562527906e-8,-0.03151195868849754,0.9995033740997314],"scale":[0.9999999403953552,0.9999999403953552,0.9999999403953552],"extensions":{"ASOBO_unique_id":{"id":"BONE_DOOR_RR_LATCH_ARM"}},"name":"BONE_DOOR_RR_LATCH_ARM","children":[132]},{"translation":[-0.13254758715629578,-0.362234503030777,0.2620483934879303],"rotation":[-0.7027772068977356,0.07813134789466858,0.07812894880771637,0.702777087688446],"scale":[1,1,1.0000001192092896],"extensions":{"ASOBO_unique_id":{"id":"BONE_DOOR_RR_VENT.001"}},"name":"BONE_DOOR_RR_VENT.001"},{"translation":[-0.014297941699624062,-0.2945350706577301,0.2149651199579239],"rotation":[-0.0222731102257967,-0.7067556977272034,-0.022273123264312744,0.7067561149597168],"extensions":{"ASOBO_unique_id":{"id":"BONE_DOOR_RR_LATCH_BASE.001"}},"name":"BONE_DOOR_RR_LATCH_BASE.001"},{"translation":[-1.989648126254906e-7,0.34154972434043884,9.833229341893457e-8],"rotation":[-5.6510110368890316e-8,2.856353091829078e-7,-0.1166778802871704,0.9931698441505432],"scale":[1,0.9999999403953552,1],"extensions":{"ASOBO_unique_id":{"id":"BONE_DOOR_RR_HINGE_ARM3"}},"name":"BONE_DOOR_RR_HINGE_ARM3","children":[133,134,135]},{"translation":[7.655592071387218e-7,0.14459174871444702,1.544862868740893e-7],"rotation":[1.7398950546976266e-7,-3.704875837229338e-7,0.5098455548286438,0.8602659702301025],"scale":[0.9999998807907104,0.9999998807907104,1],"extensions":{"ASOBO_unique_id":{"id":"BONE_DOOR_RR_HINGE_ARM2"}},"name":"BONE_DOOR_RR_HINGE_ARM2","children":[136]},{"translation":[0,0.12382698059082033,0],"rotation":[0.6462092399597168,0.2870776951313019,-0.2870776355266571,0.6462093591690063],"scale":[0.9999998807907104,0.9999999403953552,1],"extensions":{"ASOBO_unique_id":{"id":"BONE_DOOR_RR_HINGE_ARM1"}},"name":"BONE_DOOR_RR_HINGE_ARM1","children":[137]},{"translation":[-1.3099864721298218,1.4299185276031494,-9.065828323364258],"rotation":[1,0,0,0],"extensions":{"ASOBO_unique_id":{"id":"BONE_DOOR_RR_HINGE_BASE"}},"name":"BONE_DOOR_RR_HINGE_BASE","children":[138]},{"translation":[-3.9518454286735505e-8,0.33355653285980225,7.446325867022098e-8],"rotation":[-1.2725837450489053e-7,3.1465447136724833e-7,-0.923511564731598,0.3835706114768982],"scale":[0.9999995231628418,0.9999999403953552,1],"extensions":{"ASOBO_unique_id":{"id":"BONE_DOOR_CARGO_F_STRUT_BASE"}},"name":"BONE_DOOR_CARGO_F_STRUT_BASE"},{"translation":[2.0502852748904843e-9,0.3721089959144592,2.466588711058648e-9],"rotation":[4.282107113340317e-7,-1.7298319221481506e-7,0.93874853849411,0.34460291266441345],"scale":[0.9999996423721312,0.9999998807907104,1],"extensions":{"ASOBO_unique_id":{"id":"BONE_DOOR_CARGO_F_STRUT_ARM1"}},"name":"BONE_DOOR_CARGO_F_STRUT_ARM1","children":[140]},{"translation":[-6.301206667558291e-9,0.1015431433916092,1.0044663412145385e-7],"rotation":[1.0263268990229336e-7,-1.5148836496337029e-7,-0.47161200642585754,0.8818061947822571],"scale":[0.9999999403953552,1,1],"extensions":{"ASOBO_unique_id":{"id":"BONE_DOOR_CARGO_F_STRUT_ARM2"}},"name":"BONE_DOOR_CARGO_F_STRUT_ARM2","children":[141]},{"translation":[0.0015171245904639363,0.22834767401218417,4.76837158203125e-7],"rotation":[-0.6657503247261047,-0.7461745738983154,-1.296263860695035e-7,1.452855400430053e-7],"scale":[1,1.0000001192092896,1],"extensions":{"ASOBO_unique_id":{"id":"BONE_DOOR_CARGO_F_STRUT_ARM3"}},"name":"BONE_DOOR_CARGO_F_STRUT_ARM3","children":[142]},{"translation":[0.01571332849562168,0.09662850201129912,0.000028627488063648343],"rotation":[-0.0007389840320684016,-0.0004861566703766584,-0.00373534276150167,0.9999927282333374],"extensions":{"ASOBO_unique_id":{"id":"BONE_DOOR_CARGO_F_LATCH"}},"name":"BONE_DOOR_CARGO_F_LATCH"},{"translation":[-0.17282216250896454,0.7607775926589966,0.666710376739502],"rotation":[-0.0009653522283770144,-0.0011386795667931435,-0.03834111616015434,0.9992635846138],"scale":[1,1.0000001192092896,0.9999998807907104],"extensions":{"ASOBO_unique_id":{"id":"BONE_DOOR_CARGO_F_HANDLE"}},"name":"BONE_DOOR_CARGO_F_HANDLE","children":[144]},{"translation":[-0.16806432604789734,0.8247841596603394,0.4522738456726074],"rotation":[-3.073524323937704e-9,-8.291451791819783e-8,-0.03704313933849335,0.9993136525154114],"scale":[1.0000001192092896,1,1],"extensions":{"ASOBO_unique_id":{"id":"BONE_DOOR_CARGO_F_VENT"}},"name":"BONE_DOOR_CARGO_F_VENT"},{"translation":[-1.3820924758911133,0.46618592739105225,6.337242603302002],"rotation":[0.9311386346817015,0.3646654486656189,-3.000592663227053e-9,0],"extensions":{"ASOBO_unique_id":{"id":"BONE_DOOR_CARGO_F_BASE"}},"name":"BONE_DOOR_CARGO_F_BASE","children":[143,145,146]},{"translation":[-0.007207379676401615,0.09502199292182922,0.0024556799326092005],"rotation":[0.002501155948266387,-0.000005061135652795201,-0.005650284234434366,0.999980926513672],"scale":[1,1.0000001192092896,1],"extensions":{"ASOBO_unique_id":{"id":"BONE_DOOR_CARGO_R_LATCH"}},"name":"BONE_DOOR_CARGO_R_LATCH"},{"translation":[-0.4310283362865448,0.6310459971427917,0.6805649399757385],"rotation":[0.6418101787567139,-0.2958245575428009,0.2821018695831299,0.6488344669342041],"scale":[0.9999999403953552,1,0.9999998807907104],"extensions":{"ASOBO_unique_id":{"id":"BONE_DOOR_CARGO_R_HANDLE"}},"name":"BONE_DOOR_CARGO_R_HANDLE","children":[148]},{"translation":[-0.4689561128616333,0.4189847707748413,0.7347149848937988],"rotation":[0.638665497303009,-0.30349278450012207,0.29033806920051575,0.6447498202323914],"scale":[1,0.9999999403953552,0.9999998807907104],"extensions":{"ASOBO_unique_id":{"id":"BONE_DOOR_CARGO_R_VENT"}},"name":"BONE_DOOR_CARGO_R_VENT"},{"translation":[-1.3734334707260132,0.46781396865844727,-6.0236687660217285],"rotation":[0.007248524110764265,0.7070696353912354,-0.7070696353912354,0.007248417008668184],"scale":[1,1.000000238418579,1],"extensions":{"ASOBO_unique_id":{"id":"BONE_DOOR_CARGO_R_BASE"}},"name":"BONE_DOOR_CARGO_R_BASE","children":[149,150]},{"translation":[1.1212250683456661e-8,0.37422898411750793,4.298053681850434e-7],"rotation":[0.4756053686141968,0.8794581294059753,-0.002727642422541976,0.018586695194244385],"extensions":{"ASOBO_unique_id":{"id":"BONE_DOOR_CARGO_R_STRUT_ARM3"}},"name":"BONE_DOOR_CARGO_R_STRUT_ARM3"},{"translation":[-1.6132162272697315e-8,0.3697167634963989,1.6763806343078613e-7],"rotation":[-0.9533661007881165,-0.3015400171279907,0.010229700244963167,0.007879725657403469],"scale":[0.999999463558197,0.9999997615814208,0.9999999403953552],"extensions":{"ASOBO_unique_id":{"id":"BONE_DOOR_CARGO_R_STRUT_ARM2"}},"name":"BONE_DOOR_CARGO_R_STRUT_ARM2","children":[152]},{"translation":[2.38865141000133e-8,0.5061875581741333,-2.975575625896454e-7],"rotation":[0.9393903613090516,0.34254488348960876,-0.01181937474757433,0.008314590901136398],"scale":[0.9999996423721312,0.9999997615814208,1],"extensions":{"ASOBO_unique_id":{"id":"BONE_DOOR_CARGO_R_STRUT_ARM1"}},"name":"BONE_DOOR_CARGO_R_STRUT_ARM1","children":[153]},{"translation":[-0.5169384479522705,0.4032239317893982,-6.501487731933594],"rotation":[-0.6079425811767578,0.7936851978302002,-0.017203887924551964,0.013177184388041496],"scale":[1,1,0.9999999403953552],"extensions":{"ASOBO_unique_id":{"id":"BONE_DOOR_CARGO_R_STRUT_BASE"}},"name":"BONE_DOOR_CARGO_R_STRUT_BASE","children":[154]},{"translation":[0.0024477168917655945,0.2813241183757782,0.015234708786010742],"rotation":[0.9970014095306396,0.001881827600300312,-0.07678109407424927,0.009453389793634416],"scale":[1.0000001192092896,1,1.0000001192092896],"extensions":{"ASOBO_unique_id":{"id":"BONE_WIPER_R_HINGE_LO"}},"name":"BONE_WIPER_R_HINGE_LO"},{"translation":[0.0024477168917655945,0.2813241183757782,0.015234708786010742],"rotation":[-0.009281023405492306,0.00001167699974757852,0.002602020278573036,0.99995356798172],"scale":[1,0.9999999403953552,1],"extensions":{"ASOBO_unique_id":{"id":"BONE_WIPER_R_HINGE_HI"}},"name":"BONE_WIPER_R_HINGE_HI"},{"translation":[-4.470348358154297e-7,0.33915242552757263,8.89413058757782e-8],"rotation":[0.04350024461746216,0.0011675533605739474,-0.21401874721050265,0.9758598208427428],"scale":[0.9999999403953552,0.9999997615814208,0.9999998211860656],"extensions":{"ASOBO_unique_id":{"id":"BONE_WIPER_R_ARM"}},"name":"BONE_WIPER_R_ARM","children":[156,157]},{"translation":[-0.16052834689617157,1.4476780891418457,12.506134033203123],"rotation":[0.13483048975467682,0.8901067972183228,-0.4093122184276581,0.14830434322357178],"scale":[0.9999999403953552,0.9999999403953552,1],"extensions":{"ASOBO_unique_id":{"id":"BONE_WIPER_R_BASE"}},"name":"BONE_WIPER_R_BASE","children":[158]},{"translation":[2.6933321350952614e-8,0.30393898487091064,-7.931339496280999e-8],"rotation":[0.006571807898581028,0.00000940699737839168,5.4938784188607315e-8,0.9999784231185912],"scale":[1,0.9999999403953552,1],"extensions":{"ASOBO_unique_id":{"id":"Wing_01_LG_main.003.R"}},"name":"Wing_01_LG_main.003.R"},{"translation":[-0.004366335924714804,-0.022954553365707397,0.08200185745954514],"rotation":[0.000015640911442460492,-0.14156559109687805,0.989928901195526,0.000001056999735737918],"scale":[1,0.9999998807907104,0.9999989867210388],"extensions":{"ASOBO_unique_id":{"id":"Wing_01_LG_main.006.R"}},"name":"Wing_01_LG_main.006.R"},{"translation":[9.621517165214757e-7,0.2991862893104553,0.030004868283867836],"rotation":[0.703575074672699,0.04235571250319481,0.7058297395706177,0.0706581398844719],"scale":[0.999999225139618,0.9999997615814208,0.9999889135360718],"extensions":{"ASOBO_unique_id":{"id":"Wing_01_LG_main.007.R"}},"name":"Wing_01_LG_main.007.R"},{"translation":[-0.0019180625677108765,0.00003138152897008695,-0.00007340870797634125],"rotation":[0.017904698848724365,-0.009371023625135422,-0.8090117573738098,0.587445080280304],"scale":[0.9999999403953552,1,1],"extensions":{"ASOBO_unique_id":{"id":"Bone_spring_r_top_track_02.R"}},"name":"Bone_spring_r_top_track_02.R"},{"translation":[-0.0019180625677108765,0.00003138152897008695,-0.00007340870797634125],"rotation":[0.0183128472417593,-0.008954174816608429,-0.8273998498916626,0.5612433552742004],"scale":[0.9999998211860656,0.9999998807907104,0.9999999403953552],"extensions":{"ASOBO_unique_id":{"id":"Bone_spring_r_top_01.R"}},"name":"Bone_spring_r_top_01.R"},{"translation":[-0.0020105652511119843,0.00003135172664769925,-0.000075499527156353],"rotation":[0.018437832593917847,-0.008873652666807175,-0.8273636102676392,0.5612940192222595],"scale":[0.9999998807907104,0.9999998807907104,1],"extensions":{"ASOBO_unique_id":{"id":"Bone_spring_r_bake.R"}},"name":"Bone_spring_r_bake.R"},{"translation":[-4.650210030376911e-7,0.17389076948165894,-0.017830749973654747],"rotation":[0.719609260559082,-0.03318213298916817,-0.6927288770675659,0.03447067365050316],"scale":[1,1.0000001192092896,1.0000208616256714],"extensions":{"ASOBO_unique_id":{"id":"Bone.003.R.001"}},"name":"Bone.003.R.001","children":[163,164,165]},{"translation":[0.04756027087569237,0.3045090436935425,-0.17525531351566315],"rotation":[0.4078018367290497,0.577656626701355,-0.4078073501586914,0.5776708722114563],"scale":[0.9999999403953552,0.999999701976776,0.9999998807907104],"extensions":{"ASOBO_unique_id":{"id":"Wing_01_LG_main.002.R"}},"name":"Wing_01_LG_main.002.R","children":[160,161,162,166]},{"translation":[-1.474534201406641e-7,0.3790692985057831,-2.3224401957122612e-8],"rotation":[-0.43714386224746704,4.7177434225886827e-7,-0.00000124199652873358,0.8993915915489197],"scale":[1,1,0.9999999403953552],"extensions":{"ASOBO_unique_id":{"id":"LG_R_ARM_LOWER"}},"name":"LG_R_ARM_LOWER"},{"translation":[-2.8648332772718277e-7,0.42222681641578674,0.06001422554254532],"rotation":[-0.8898966908454895,-5.18452054620866e-7,-0.000001050133960234234,0.4561621248722077],"scale":[1,0.9999999403953552,0.9999998211860656],"extensions":{"ASOBO_unique_id":{"id":"LG_R_ARM_ARRESTOR"}},"name":"LG_R_ARM_ARRESTOR"},{"translation":[1.0865144872695964e-7,1.2539477348327637,0.1475237011909485],"rotation":[0.2923555374145508,-9.382856092088332e-7,0.0000010809849300130736,0.9563097953796388],"scale":[1,0.9999999403953552,1],"extensions":{"ASOBO_unique_id":{"id":"LG_R_ARM_UPPER"}},"name":"LG_R_ARM_UPPER","children":[168,169]},{"translation":[0.07332364469766617,0.23001430928707123,-0.08192013204097748],"rotation":[0.6946091651916504,0.13475435972213745,-0.06323888897895813,0.7038183212280273],"scale":[1,0.9999999403953552,0.9999998807907104],"extensions":{"ASOBO_unique_id":{"id":"LG_main_shaft.R.001"}},"name":"LG_main_shaft.R.001"},{"translation":[-0.15144340693950653,0.9258100390434264,-0.2651667296886444],"rotation":[0.7109213471412659,0.028356589376926426,-0.028356974944472313,0.7021272778511047],"extensions":{"ASOBO_unique_id":{"id":"LG_door_01.R"}},"name":"LG_door_01.R","children":[171]},{"translation":[0.0000012493577514760543,1.9083647727966309,0.12569665908813477],"rotation":[-0.70710688829422,-0.000001669368884904543,-0.0000014046024716662942,0.7071066498756409],"extensions":{"ASOBO_unique_id":{"id":"LG_R_WHEELROT_PIVOT"}},"name":"LG_R_WHEELROT_PIVOT"},{"translation":[0.06077279150485992,1.0125645399093628,-0.17525650560855863],"rotation":[-0.0028290359769016504,-4.84190479710378e-7,1.1525797560807405e-7,0.9999960064888],"extensions":{"ASOBO_unique_id":{"id":"Bone.003.R"}},"name":"Bone.003.R"},{"translation":[1.3372814655303955,1.1254010200500488,-0.05713760852813721],"rotation":[-0.5306837558746338,0.4673056006431579,-0.5306860208511353,0.4673035740852356],"scale":[1,0.9999998807907104,0.9999999403953552],"extensions":{"ASOBO_unique_id":{"id":"LG_main_shaft.R"}},"name":"LG_main_shaft.R","children":[167,170,172,173,174]},{"translation":[-4.931330295221414e-7,0.7345345616340637,-2.6873749447986484e-8],"rotation":[-0.6530846953392029,0.2710516154766083,0.65310138463974,0.2710537612438202],"scale":[1.000000238418579,1.0000001192092896,1],"extensions":{"ASOBO_unique_id":{"id":"Wing_01_LG_main.008.R"}},"name":"Wing_01_LG_main.008.R"},{"translation":[8.055940270423889e-8,-4.3856016418430954e-7,-3.489549271762371e-8],"rotation":[7.903414029897249e-7,-3.237787495891098e-7,8.974170100373158e-7,1],"extensions":{"ASOBO_unique_id":{"id":"Bone_spring_r_bot_track_02.R"}},"name":"Bone_spring_r_bot_track_02.R"},{"translation":[0.0065640960820019245,0.5829352736473083,-0.00004173535853624344],"rotation":[0.9344152212142944,-0.3561788499355316,-0.0000722265976946801,0.0022226583678275347],"scale":[0.9999999403953552,0.9999998211860656,1],"extensions":{"ASOBO_unique_id":{"id":"Bone_spring_r_bot_01.R"}},"name":"Bone_spring_r_bot_01.R","children":[177]},{"translation":[0.00656409515067935,0.5829352736473083,-0.00004185456782579422],"rotation":[0.9344890117645264,-0.35598519444465637,-0.00007071012078085914,0.0022191579919308424],"scale":[0.9999999403953552,1,1],"extensions":{"ASOBO_unique_id":{"id":"Bone_spring_r_bake.001.R"}},"name":"Bone_spring_r_bake.001.R"},{"translation":[1.350645106867887e-8,0.7345340847969055,-2.6876023184740916e-8],"rotation":[0.000003087983031946351,-0.003156950231641531,0.0010416159639135003,0.9999945759773254],"scale":[1.0000001192092896,1,1],"extensions":{"ASOBO_unique_id":{"id":"Bone.002.R"}},"name":"Bone.002.R","children":[178,179]},{"translation":[1.1620250940322876,0.03553414344787598,0.11071015149354936],"rotation":[-0.3117327392101288,0.6346809267997742,-0.31173238158226013,0.6346856355667114],"scale":[0.9999999403953552,0.9999997615814208,0.9999998807907104],"extensions":{"ASOBO_unique_id":{"id":"Bone.001.R"}},"name":"Bone.001.R","children":[176,180]},{"translation":[1.4639955759048462,1.324213981628418,-0.1734285205602646],"rotation":[0.7068973779678345,-0.7033841609954834,0.07247970998287201,0.01713070459663868],"scale":[1,0.9999997615814208,1.0000001192092896],"extensions":{"ASOBO_unique_id":{"id":"LG_door_02.R"}},"name":"LG_door_02.R"},{"translation":[-0.011430989019572737,1.3814769983291626,-0.831672191619873],"rotation":[9.145483090833296e-7,-5.5402824187633475e-15,1,1.38637934682731e-13],"extensions":{"ASOBO_unique_id":{"id":"BONE_ENG_REV_R"}},"name":"BONE_ENG_REV_R"},{"translation":[-0.012526274658739569,1.6361228227615356,-0.8250317573547363],"rotation":[-0.0000016883348052942893,-0.000005748785952164326,-0.7071068286895752,0.7071067094802856],"extensions":{"ASOBO_unique_id":{"id":"BONE_ENG_FAN_R"}},"name":"BONE_ENG_FAN_R"},{"translation":[-1.242465257644653,2.5436623096466064,-0.10165533423423768],"rotation":[-0.04481623694300651,0.044816117733716965,0.7056851387023926,0.7056851983070374],"scale":[1.0000001192092896,1,1.0000001192092896],"extensions":{"ASOBO_unique_id":{"id":"BONE_ENG_MOUNT_R"}},"name":"BONE_ENG_MOUNT_R","children":[183,184]},{"translation":[1.6808602809906006,0.036990683525800705,0.1284475177526474],"rotation":[-0.021180110052227977,-0.09063812345266342,-0.17401498556137085,0.9803341031074524],"scale":[0.9999999403953552,0.9999999403953552,1],"extensions":{"ASOBO_unique_id":{"id":"BONE_SPOILER_L3.R"}},"name":"BONE_SPOILER_L3.R"},{"translation":[2.3967032432556152,0.0007157400250434875,-0.000008248411177191883],"rotation":[-0.01156453602015972,-0.049335237592458725,-0.22793762385845184,0.9723563194274902],"scale":[0.9999999403953552,0.9999998211860656,0.9999998807907104],"extensions":{"ASOBO_unique_id":{"id":"BONE_SLAT_L5_EDGE.R"}},"name":"BONE_SLAT_L5_EDGE.R"},{"translation":[3.7197632789611816,0.1916755586862564,-0.026350153610110283],"rotation":[-0.005435580387711525,-0.04732448235154152,-0.1682242900133133,0.9845972061157228],"scale":[0.9999999403953552,0.9999999403953552,0.9999998211860656],"extensions":{"ASOBO_unique_id":{"id":"BONE_AILERON.R"}},"name":"BONE_AILERON.R"},{"translation":[-0.3888750076293946,0.14442917704582214,-0.35552334785461426],"rotation":[0.02025589533150196,0.487190842628479,-0.11780136823654176,0.8650766611099243],"mesh":8,"extensions":{"ASOBO_unique_id":{"id":"LT_NAV_EM_FR_GREEN"}},"name":"LT_NAV_EM_FR_GREEN"},{"translation":[-2.172117233276367,1.7431315183639526,-2.3369429111480713],"rotation":[0,-1,0,1.1525121124122961e-7],"mesh":9,"extensions":{"ASOBO_unique_id":{"id":"LT_NAV_EM_RR_WHITE"}},"name":"LT_NAV_EM_RR_WHITE"},{"translation":[-0.4169635772705078,0.1664794385433197,-0.34747910499572754],"mesh":10,"extensions":{"ASOBO_unique_id":{"id":"LT_NAV_GLASS_FR"}},"name":"LT_NAV_GLASS_FR"},{"translation":[-0.4361515045166016,0.1801932752132416,-0.38668155670166016],"rotation":[-0.0974564477801323,-0.3031015396118164,-0.031177610158920288,0.947449028491974],"mesh":11,"extensions":{"ASOBO_unique_id":{"id":"LT_STROBE_EM_FR_WHITE"}},"name":"LT_STROBE_EM_FR_WHITE"},{"translation":[-2.172117233276367,1.7431315183639526,-2.3369429111480713],"rotation":[0,-1,0,1.1525121124122961e-7],"mesh":12,"extensions":{"ASOBO_unique_id":{"id":"LT_STROBE_EM_RR_WHITE"}},"name":"LT_STROBE_EM_RR_WHITE"},{"translation":[12.27929401397705,-1.1234228610992432,3.59972882270813],"mesh":13,"extensions":{"ASOBO_unique_id":{"id":"WINGLET_A_R_GLASS"}},"name":"WINGLET_A_R_GLASS"},{"mesh":14,"extensions":{"ASOBO_unique_id":{"id":"WINGLET_A_R"}},"name":"WINGLET_A_R","children":[189,190,191,192,193,194]},{"mesh":15,"extensions":{"ASOBO_unique_id":{"id":"WINGLET_A_R_ICING"}},"name":"WINGLET_A_R_ICING"},{"translation":[3.5805492401123047,2.681804656982422,-0.007789148949086666],"rotation":[0.47572991251945496,-0.5231437087059021,-0.4757301807403565,0.5231469869613647],"scale":[0.9999988675117492,0.9999818801879884,0.9999997615814208],"extensions":{"ASOBO_unique_id":{"id":"WINGTIP_R"}},"name":"WINGTIP_R","children":[195,196]},{"translation":[6.99075020094142e-10,2.3595471382141113,8.954993546694824e-8],"rotation":[-0.0029469747096300125,7.075100867583868e-14,-2.1956823512137017e-11,0.9999956488609314],"extensions":{"ASOBO_unique_id":{"id":"BONE_WING_4.R"}},"name":"BONE_WING_4.R","children":[187,188,197]},{"translation":[2.662403345108032,0.010410681366920471,0.10004930943250656],"rotation":[-0.02118008583784103,-0.09063809365034103,-0.17401504516601562,0.9803341031074524],"scale":[0.9999998807907104,0.9999999403953552,1],"extensions":{"ASOBO_unique_id":{"id":"BONE_SPOILER_L5.R"}},"name":"BONE_SPOILER_L5.R"},{"translation":[0.22978195548057556,0.05338051915168762,-0.08783465623855591],"rotation":[0.003501763567328453,-0.04378438740968704,0.0027619258034974337,0.9990310668945312],"scale":[0.9999999403953552,0.9999999403953552,1],"extensions":{"ASOBO_unique_id":{"id":"BONE_WING_L2.009.R"}},"name":"BONE_WING_L2.009.R"},{"translation":[2.917844772338867,-0.06048469990491867,-0.00744570093229413],"rotation":[-0.00918631162494421,-0.0484515018761158,-0.1566835343837738,0.9864169359207152],"scale":[1,1.0000001192092896,1],"extensions":{"ASOBO_unique_id":{"id":"BONE_WING_L2.012.R"}},"name":"BONE_WING_L2.012.R","children":[200]},{"translation":[1.2225936651229858,-0.0005644857883453369,0.000007370429557340685],"rotation":[-0.01189817301928997,-0.05062727630138397,-0.2284024953842163,0.972176730632782],"scale":[1,1,1.0000001192092896],"extensions":{"ASOBO_unique_id":{"id":"BONE_SLAT_L4_EDGE.R"}},"name":"BONE_SLAT_L4_EDGE.R"},{"translation":[2.9282565116882324,1.168447494506836,-0.2530224919319153],"rotation":[-0.506693959236145,-0.4788857400417328,-0.49261537194252014,0.5208261013031006],"scale":[1,1,1.0000001192092896],"extensions":{"ASOBO_unique_id":{"id":"BONE_WING_L2.015.R"}},"name":"BONE_WING_L2.015.R"},{"translation":[-1.3194306758279596e-14,1.07802414894104,2.2351800410547185e-8],"rotation":[7.450580596923828e-9,3.725358244111021e-9,2.6527665700963346e-17,1],"scale":[1,0.9999999403953552,1],"extensions":{"ASOBO_unique_id":{"id":"BONE_WING_3B.R"}},"name":"BONE_WING_3B.R","children":[198,199,201,202,203]},{"translation":[2.266500473022461,0.011495448648929596,0.111503504216671],"rotation":[-0.02118004858493805,-0.09063811600208282,-0.1740151196718216,0.9803341627120972],"extensions":{"ASOBO_unique_id":{"id":"BONE_SPOILER_L4.R"}},"name":"BONE_SPOILER_L4.R"},{"translation":[0.23677939176559448,0.06925603747367859,-0.09459181129932404],"rotation":[0.003596183378249407,-0.04378555342555046,0.003417497733607888,0.9990286827087402],"scale":[1,0.9999999403953552,1],"extensions":{"ASOBO_unique_id":{"id":"BONE_WING_L2.010.R"}},"name":"BONE_WING_L2.010.R"},{"translation":[2.608473062515259,0.06953016668558121,-0.004514254629611969],"rotation":[-0.009192212484776974,-0.04845075309276581,-0.15680500864982605,0.986397624015808],"scale":[0.9999999403953552,1,1],"extensions":{"ASOBO_unique_id":{"id":"BONE_WING_L2.013.R"}},"name":"BONE_WING_L2.013.R","children":[206]},{"translation":[0.6933223605155945,0.012757856398820875,8.195858214321562e-8],"rotation":[-0.011887172237038612,-0.050630100071430206,-0.22831612825393677,0.9721970558166504],"scale":[0.9999999403953552,0.9999999403953552,1],"extensions":{"ASOBO_unique_id":{"id":"BONE_SLAT_L3_EDGE.R"}},"name":"BONE_SLAT_L3_EDGE.R"},{"translation":[-6.9922867496075e-10,1.6185581684112549,2.2208867633821683e-8],"rotation":[-6.705522537231445e-8,3.7260265983718455e-9,-8.078552911636248e-17,1],"extensions":{"ASOBO_unique_id":{"id":"BONE_WING_3A.R"}},"name":"BONE_WING_3A.R","children":[204,205,207,208]},{"translation":[2.1164321899414062,1.1419379711151123,-0.28530994057655334],"rotation":[-0.5041289925575256,-0.4842771291732788,-0.4952698349952698,0.5157881379127502],"scale":[1,1,0.9999999403953552],"extensions":{"ASOBO_unique_id":{"id":"BONE_WING_L2.014.R"}},"name":"BONE_WING_L2.014.R"},{"translation":[-0.1177251860499382,0.000012073665857315063,0.000007890898814366665],"rotation":[-0.011893566697835922,-0.050628602504730225,-0.22834311425685885,0.9721906781196594],"extensions":{"ASOBO_unique_id":{"id":"BONE_SLAT_L2.001.R"}},"name":"BONE_SLAT_L2.001.R"},{"translation":[0.2466839104890823,0.06665978580713272,-0.10633647441864014],"rotation":[0.0034922994673252106,-0.04378175362944603,0.002702024532482028,0.9990313649177552],"scale":[0.9999998807907104,0.9999999403953552,0.9999999403953552],"extensions":{"ASOBO_unique_id":{"id":"BONE_WING_L2.008.R"}},"name":"BONE_WING_L2.008.R"},{"translation":[2.067772626876831,0.034284040331840515,0.0006000467692501843],"rotation":[-0.0092054083943367,-0.048449065536260605,-0.15707480907440186,0.986354649066925],"scale":[0.9999999403953552,1,0.9999999403953552],"extensions":{"ASOBO_unique_id":{"id":"BONE_WING_L2.011.R"}},"name":"BONE_WING_L2.011.R","children":[212]},{"translation":[-1.9062298406424816e-9,3.131274461746216,-1.6577935468831132e-8],"rotation":[-0.01304058451205492,3.9982708699426446e-8,6.186235412819484e-10,0.9999150633811952],"scale":[1,1,1.0000001192092896],"extensions":{"ASOBO_unique_id":{"id":"BONE_WING_2.R"}},"name":"BONE_WING_2.R","children":[186,209,210,211,213]},{"translation":[1.890227198600769,0.011796525679528711,0.09248992800712584],"rotation":[0.00029727586661465466,-0.06338432431221008,0.004680342506617308,0.9979782104492188],"scale":[1,1,1.0000001192092896],"extensions":{"ASOBO_unique_id":{"id":"BONE_SPOILER_L1.R"}},"name":"BONE_SPOILER_L1.R"},{"translation":[0.02287299931049347,-0.11172182857990264,0.38678866624832153],"rotation":[0.02790839783847332,-0.734420657157898,-0.00044584990246221423,0.6781203746795654],"scale":[1,0.9999999403953552,1],"extensions":{"ASOBO_unique_id":{"id":"BONE_WING_L1.003.R"}},"name":"BONE_WING_L1.003.R"},{"translation":[2.1302757263183594,0.045618630945682526,-0.3015107810497284],"rotation":[-0.02516326867043972,0.6895375847816467,0.023984936997294422,0.7234151363372803],"scale":[1.0000001192092896,1.0000001192092896,1],"extensions":{"ASOBO_unique_id":{"id":"BONE_WING_L1.004.R"}},"name":"BONE_WING_L1.004.R","children":[216]},{"translation":[1.8757505416870115,1.5551730394363403,0.09248998761177064],"rotation":[0.0002972870715893805,-0.06338433921337128,0.004680342972278595,0.9979782104492188],"scale":[1,1.000000238418579,1.0000001192092896],"extensions":{"ASOBO_unique_id":{"id":"BONE_SPOILER_L2.R"}},"name":"BONE_SPOILER_L2.R"},{"translation":[-1.6678290367126465,0.003002212615683675,0.006553935818374157],"rotation":[-0.014110607095062733,-0.0561528243124485,-0.2275671660900116,0.9720396995544434],"scale":[0.9999999403953552,1,1],"extensions":{"ASOBO_unique_id":{"id":"BONE_SLAT_L1_EDGE.R"}},"name":"BONE_SLAT_L1_EDGE.R"},{"translation":[7.450580596923828e-9,0,7.450580596923828e-9],"rotation":[4.36235119138928e-8,0.06337852030992508,0.9979895949363708,2.7703379590349182e-9],"scale":[1,1.0000003576278689,1.0000184774398804],"extensions":{"ASOBO_unique_id":{"id":"BONE_WING_1.R"}},"name":"BONE_WING_1.R","children":[175,181,182,185,214,215,217,218,219]},{"translation":[-1.4722042083740234,-0.0275462344288826,-0.019180424511432648],"rotation":[-0.5,-0.5,-0.5,0.5],"extensions":{"ASOBO_unique_id":{"id":"BONE_BELLY.R"}},"name":"BONE_BELLY.R","children":[220]},{"translation":[-3.3341164588928223,-0.15599097311496735,-1.7853100299835205],"rotation":[-0.7140776515007019,0.0010939545463770628,0.0010939545463770628,0.7000648379325867],"extensions":{"ASOBO_unique_id":{"id":"BONE_WING_L1.005.R"}},"name":"BONE_WING_L1.005.R"},{"extensions":{"ASOBO_unique_id":{"id":"Armature"}},"name":"Armature","children":[8,37,99,100,101,102,104,105,109,110,112,121,130,139,147,151,155,159,221,222]},{"extensions":{"ASOBO_unique_id":{"id":"DATUMCENTER"}},"name":"DATUMCENTER"}],"scene":0,"scenes":[{"nodes":[223,224],"name":"Scene"}],"skins":[{"inverseBindMatrices":0,"joints":[8,7,6,5,2,1,0,3,4,37,22,13,10,9,12,11,14,19,15,16,17,18,20,21,28,26,24,23,25,27,31,30,29,32,35,34,33,36,99,98,66,38,61,56,50,39,40,51,53,52,54,55,57,59,58,60,62,63,65,64,82,74,67,68,69,73,70,71,72,77,75,76,79,78,80,81,85,83,84,91,86,90,88,87,89,92,93,95,94,96,97,100,101,102,104,103,105,109,108,106,107,110,112,111,121,120,119,118,115,114,113,116,117,130,129,128,127,124,123,122,125,126,139,138,137,136,133,132,131,134,135,147,143,142,141,140,145,144,146,151,149,148,150,155,154,153,152,159,158,156,157,221,220,175,167,160,161,162,166,163,164,165,170,168,169,172,171,173,174,181,176,180,178,177,179,182,185,183,184,214,186,209,204,198,187,188,199,201,200,202,203,205,207,206,208,210,211,213,212,215,217,216,218,219,222],"skeleton":-1,"name":"Armature"}],"textures":[{"extensions":{"MSFT_texture_dds":{"source":0}}},{"extensions":{"MSFT_texture_dds":{"source":1}}},{"extensions":{"MSFT_texture_dds":{"source":2}}},{"extensions":{"MSFT_texture_dds":{"source":3}}},{"extensions":{"MSFT_texture_dds":{"source":4}}},{"extensions":{"MSFT_texture_dds":{"source":5}}},{"extensions":{"MSFT_texture_dds":{"source":6}}}],"samplers":[{"magFilter":9729,"minFilter":9987,"wrapS":10497,"wrapT":10497}],"extensionsUsed":["ASOBO_normal_map_convention","ASOBO_unique_id","ASOBO_material_glass","ASOBO_material_blend_gbuffer","ASOBO_material_detail_map","ASOBO_material_kitty_glass","MSFT_texture_dds","ASOBO_asset_optimized"],"buffers":[{"byteLength":534172,"uri":"E175_WINGLET_G_LOD00.bin"}],"images":[{"uri":"DECALS_ALBD.PNG.DDS","name":"decals_ALBD","extras":"ASOBO_image_converted_meta"},{"uri":"WINGS_NORM.PNG.DDS","name":"wings_NORM","extras":"ASOBO_image_converted_meta"},{"uri":"WINGS_COMP.PNG.DDS","name":"wings_COMP","extras":"ASOBO_image_converted_meta"},{"uri":"WINGS_ALBD.PNG.DDS","name":"wings_ALBD","extras":"ASOBO_image_converted_meta"},{"uri":"FROST_DETAIL_NORM.PNG.DDS","name":"Frost_Detail_norm","extras":"ASOBO_image_converted_meta"},{"uri":"FROST_DETAIL_COMP.PNG.DDS","name":"Frost_Detail_comp","extras":"ASOBO_image_converted_meta"},{"uri":"FROST_ALBD.PNG.DDS","name":"Frost_albd","extras":"ASOBO_image_converted_meta"}]}